<svg width="76" height="76" viewBox="0 0 76 76" fill="none" xmlns="http://www.w3.org/2000/svg">
<ellipse cx="38.0002" cy="39.0556" rx="31.6667" ry="32.7222" fill="#98C5C9"/>
<path d="M39.9003 22.6812C38.8315 21.6125 37.169 21.6125 36.1003 22.6812L24.344 34.2C23.2753 35.2687 23.2753 36.9312 24.344 38C24.819 38.475 25.5315 38.8312 26.244 38.8312C26.9565 38.8312 27.5503 38.5937 28.144 38.1187L35.3878 30.9937V51.5375C35.3878 52.9625 36.5753 54.15 38.0003 54.15C39.4253 54.15 40.6128 52.9625 40.6128 51.5375V30.875L47.8565 38C48.9253 39.0687 50.5878 39.0687 51.6565 38C52.7253 36.9312 52.7253 35.2687 51.6565 34.2L39.9003 22.6812Z" fill="#060C0D"/>
<path d="M38.0002 2.01874C18.1689 2.01874 2.1377 18.1687 2.1377 38C2.1377 57.8312 18.1689 73.9812 38.0002 73.9812C57.8315 73.9812 73.8627 57.8312 73.8627 38C73.8627 18.1687 57.8315 2.01874 38.0002 2.01874ZM38.0002 68.6375C21.1377 68.6375 7.3627 54.8625 7.3627 38C7.3627 21.1375 21.1377 7.36249 38.0002 7.36249C54.8627 7.36249 68.6377 21.1375 68.6377 38C68.6377 54.8625 54.8627 68.6375 38.0002 68.6375Z" fill="#060C0D"/>
</svg>
