<svg width="48" height="48" viewBox="0 0 48 48" fill="none" xmlns="http://www.w3.org/2000/svg">
<path d="M9.15006 16.8752C8.62506 17.4752 7.80006 18.0752 6.90006 17.9252C6.82506 17.1002 7.20006 16.1252 7.72506 15.5252C8.25006 14.9252 9.22506 14.3252 9.97506 14.3252C10.0501 15.4502 9.67506 16.2752 9.15006 16.8752ZM9.97506 18.3002C8.70006 18.2252 7.65006 19.0502 7.12506 19.0502C6.52506 19.0502 5.55006 18.3002 4.57506 18.3002C3.30006 18.3002 2.17506 19.0502 1.42506 20.1752C6.10352e-05 22.5002 1.05006 26.0252 2.32506 27.9002C3.00006 28.8752 3.75006 29.9252 4.80006 29.9252C5.77506 29.9252 6.07506 29.3252 7.20006 29.3252C8.32506 29.3252 8.70006 29.9252 9.75006 29.8502C10.8001 29.8502 11.4751 28.8752 12.0751 27.9752C12.8251 26.9252 13.1251 25.8752 13.1251 25.7252C13.1251 25.7252 11.1001 24.9002 11.1001 22.5752C11.1001 20.5502 12.6751 19.7252 12.8251 19.7252C11.8501 18.3752 10.5001 18.3002 9.97506 18.3002ZM17.2501 15.5252V29.7002H19.5001V24.8252H22.5751C25.3501 24.8252 27.3751 22.9502 27.3751 20.1752C27.3751 17.4002 25.5001 15.5252 22.7251 15.5252H17.2501ZM19.5001 17.4002H22.0501C23.9251 17.4002 25.0501 18.4502 25.0501 20.2502C25.0501 22.0502 24.0001 23.1002 22.0501 23.1002H19.5001V17.4002ZM31.2751 29.9252C32.6251 29.9252 33.9001 29.1752 34.5751 28.1252H34.6501V29.8502H36.6751V22.7252C36.6751 20.7002 35.1001 19.3502 32.5501 19.3502C30.2251 19.3502 28.5001 20.6252 28.4251 22.5002H30.3001C30.3751 21.6752 31.2751 21.0002 32.4001 21.0002C33.6751 21.0002 34.5001 21.6002 34.5001 22.7252V23.5502L31.7251 23.6252C29.1751 23.7002 27.8251 24.8252 27.8251 26.6252C27.7501 28.6502 29.2501 29.9252 31.2751 29.9252ZM31.8751 28.2002C30.6751 28.2002 30.0001 27.6752 30.0001 26.7002C30.0001 25.8752 30.7501 25.3502 32.1001 25.2002L34.5001 25.1252V25.9502C34.5751 27.3002 33.3751 28.2002 31.8751 28.2002ZM39.3001 33.6002C41.4001 33.6002 42.4501 32.7752 43.3501 30.3002L47.2501 19.5752H45.0001L42.3751 27.9752H42.3001L39.6751 19.5752H37.3501L41.0251 29.9252L40.8001 30.4502C40.5001 31.5002 39.9751 31.9502 39.0001 31.9502C38.9251 31.9502 38.4751 31.9502 38.4001 31.9502V33.6752C38.7001 33.6002 39.2251 33.6002 39.3001 33.6002Z" fill="black"/>
</svg>
