<svg width="36" height="36" viewBox="0 0 36 36" fill="none" xmlns="http://www.w3.org/2000/svg">
<path d="M20.8686 26.8875C18.6186 26.8875 16.8186 28.6875 16.8186 30.9375C16.8186 33.1875 18.6186 34.9875 20.8686 34.9875C23.1186 34.9875 24.9186 33.1875 24.9186 30.9375C24.9186 28.7437 23.0624 26.8875 20.8686 26.8875ZM20.8686 32.5125C20.0249 32.5125 19.3499 31.8375 19.3499 30.9937C19.3499 30.15 20.0249 29.475 20.8686 29.475C21.7124 29.475 22.3874 30.15 22.3874 30.9937C22.3874 31.7812 21.6561 32.5125 20.8686 32.5125Z" fill="#FBF1F2"/>
<path d="M10.1811 26.8875C7.9311 26.8875 6.1311 28.6875 6.1311 30.9375C6.1311 33.1875 7.9311 34.9875 10.1811 34.9875C12.4311 34.9875 14.2311 33.1875 14.2311 30.9375C14.2311 28.7437 12.3749 26.8875 10.1811 26.8875ZM10.1811 32.5125C9.33735 32.5125 8.66235 31.8375 8.66235 30.9937C8.66235 30.15 9.33735 29.475 10.1811 29.475C11.0249 29.475 11.6999 30.15 11.6999 30.9937C11.6999 31.7812 11.0249 32.5125 10.1811 32.5125Z" fill="#FBF1F2"/>
<path d="M32.7374 1.01245H29.6999C28.3499 1.01245 27.1687 2.02495 26.9999 3.37495L26.0999 9.8437H3.88119C3.31869 9.8437 2.75619 10.125 2.36244 10.575C2.02494 11.025 1.85619 11.6437 2.02494 12.2062C2.02494 12.2625 2.02494 12.2625 2.02494 12.3187L5.51244 22.8375C5.73744 23.625 6.46869 24.1875 7.31244 24.1875H22.8374C24.9187 24.1875 26.7187 22.6125 26.9999 20.5312L29.3624 3.71245C29.3624 3.59995 29.4749 3.5437 29.5874 3.5437H32.6249C33.2999 3.5437 33.9187 2.9812 33.9187 2.24995C33.9187 1.5187 33.4124 1.01245 32.7374 1.01245ZM24.5812 20.1375C24.4687 20.9812 23.7374 21.6 22.8937 21.6H7.81869L4.78119 12.375H25.7062L24.5812 20.1375Z" fill="#FBF1F2"/>
</svg>
