<svg width="33" height="34" viewBox="0 0 33 34" fill="none" xmlns="http://www.w3.org/2000/svg">
<path d="M19.8686 25.8875C17.6186 25.8875 15.8186 27.6875 15.8186 29.9375C15.8186 32.1875 17.6186 33.9875 19.8686 33.9875C22.1186 33.9875 23.9186 32.1875 23.9186 29.9375C23.9186 27.7437 22.0624 25.8875 19.8686 25.8875ZM19.8686 31.5125C19.0249 31.5125 18.3499 30.8375 18.3499 29.9937C18.3499 29.15 19.0249 28.475 19.8686 28.475C20.7124 28.475 21.3874 29.15 21.3874 29.9937C21.3874 30.7812 20.6561 31.5125 19.8686 31.5125Z" fill="#FBF1F2"/>
<path d="M9.1811 25.8875C6.9311 25.8875 5.1311 27.6875 5.1311 29.9375C5.1311 32.1875 6.9311 33.9875 9.1811 33.9875C11.4311 33.9875 13.2311 32.1875 13.2311 29.9375C13.2311 27.7437 11.3749 25.8875 9.1811 25.8875ZM9.1811 31.5125C8.33735 31.5125 7.66235 30.8375 7.66235 29.9937C7.66235 29.15 8.33735 28.475 9.1811 28.475C10.0249 28.475 10.6999 29.15 10.6999 29.9937C10.6999 30.7812 10.0249 31.5125 9.1811 31.5125Z" fill="#FBF1F2"/>
<path d="M31.7374 0.0124512H28.6999C27.3499 0.0124512 26.1687 1.02495 25.9999 2.37495L25.0999 8.8437H22.7374V4.73745C22.6812 3.72495 21.8937 2.93745 20.9374 2.93745H16.7749C16.6062 2.0937 15.8749 1.47495 15.0312 1.47495H10.1374C9.18119 1.47495 8.33744 2.3187 8.33744 3.38745V4.4562H4.23119C3.27494 4.4562 2.43119 5.2437 2.43119 6.1437V8.89995C1.98119 9.01245 1.64369 9.23745 1.36244 9.57495C1.02494 10.025 0.856192 10.6437 1.02494 11.2062C1.02494 11.2625 1.02494 11.2625 1.02494 11.3187L4.51244 21.8375C4.73744 22.625 5.46869 23.1875 6.31244 23.1875H21.8374C23.9187 23.1875 25.7187 21.6125 25.9999 19.5312L28.3624 2.71245C28.3624 2.59995 28.4749 2.5437 28.5874 2.5437H31.6249C32.2999 2.5437 32.9187 1.9812 32.9187 1.24995C32.9187 0.518701 32.4124 0.0124512 31.7374 0.0124512ZM20.1499 8.8437H16.7749V5.4687H20.1499V8.8437ZM10.9249 4.0062H14.2999V4.73745V8.8437H10.9249V6.19995V4.0062ZM5.01869 6.9312H8.39369V8.8437H5.01869V6.9312ZM23.5812 19.1375C23.4687 19.9812 22.7374 20.6 21.8937 20.6H6.81869L3.78119 11.375H24.7062L23.5812 19.1375Z" fill="#FBF1F2"/>
</svg>
