<svg width="50" height="50" viewBox="0 0 50 50" fill="none" xmlns="http://www.w3.org/2000/svg">
<path d="M32.9687 23.2031H26.7187V17.0312C26.7187 16.0937 25.9375 15.3125 24.9219 15.3125C23.9844 15.3125 23.2031 16.0937 23.2031 17.1094V23.2812H17.0312C16.0937 23.2812 15.3125 24.0625 15.3125 25.0781C15.3125 26.0156 16.0937 26.7969 17.1094 26.7969H23.2812V32.9687C23.2812 33.9062 24.0625 34.6875 25.0781 34.6875C26.0156 34.6875 26.7969 33.9062 26.7969 32.8906V26.7187H32.9687C33.9062 26.7187 34.6875 25.9375 34.6875 24.9219C34.6875 23.9844 33.9062 23.2031 32.9687 23.2031Z" fill="#1D3F47"/>
<path d="M25 1.40625C11.9531 1.40625 1.40625 11.9531 1.40625 25C1.40625 38.0469 12.0312 48.6719 25.0781 48.6719C38.125 48.6719 48.75 38.0469 48.75 25C48.6719 11.9531 38.0469 1.40625 25 1.40625ZM25 45.1562C13.9063 45.1562 4.92188 36.0938 4.92188 25C4.92188 13.9063 13.9063 4.92188 25 4.92188C36.0938 4.92188 45.1562 13.9063 45.1562 25C45.1562 36.0938 36.0938 45.1562 25 45.1562Z" fill="#1D3F47"/>
</svg>
