<svg width="23" height="38" viewBox="0 0 23 38" fill="none" xmlns="http://www.w3.org/2000/svg">
<g clip-path="url(#clip0_757_6944)">
<path d="M8.89648 29.247H10.3314L11.1923 23.7944H9.79329L8.89648 29.247Z" fill="black"/>
<path d="M14.0619 25.9826C13.5597 25.7315 13.2728 25.5521 13.2728 25.301C13.2728 25.0858 13.5239 24.8347 14.0978 24.8347C14.5642 24.8347 14.887 24.9423 15.174 25.0499L15.3175 25.0858L15.4968 23.9379C15.2099 23.8303 14.7794 23.7227 14.2413 23.7227C12.8423 23.7227 11.8379 24.4401 11.8379 25.5163C11.8379 26.3055 12.5194 26.7718 13.0934 27.0229C13.6315 27.274 13.8467 27.4534 13.8467 27.7045C13.8467 28.0632 13.4162 28.2426 12.9858 28.2426C12.4118 28.2426 12.089 28.1708 11.6226 27.9556L11.4433 27.8839L11.228 29.1394C11.5509 29.247 12.1607 29.3905 12.7705 29.3905C14.2772 29.4264 15.2457 28.673 15.2457 27.5251C15.2099 26.8794 14.8511 26.3772 14.0619 25.9826Z" fill="black"/>
<path d="M18.008 23.7944C17.6851 23.7944 17.3981 23.9021 17.2547 24.2608L15.1382 29.247H16.5731V29.2829C16.5731 29.2829 16.7883 28.6013 16.8959 28.4578C17.0394 28.4578 18.5102 28.4578 18.6896 28.4578C18.7254 28.6372 18.8689 29.2829 18.8689 29.2829H20.1962L19.0483 23.8303H18.008V23.7944ZM17.2905 27.3458C17.3981 27.0229 17.8645 25.8392 17.8645 25.8392C17.8645 25.875 18.008 25.5163 18.0438 25.3369L18.1515 25.8033C18.1515 25.8033 18.4384 27.1306 18.4743 27.3817C18.2591 27.3458 17.5775 27.3458 17.2905 27.3458Z" fill="black"/>
<path d="M7.74847 23.7944L6.34945 27.561L5.59613 23.7944H2.76221L4.34059 24.9782L5.48851 29.247H6.95928L9.25511 23.7944H7.74847Z" fill="black"/>
<path d="M19.5864 19.8125H3.37204C1.8654 19.8125 0.609863 21.0322 0.609863 22.5747V30.4666C0.609863 31.9732 1.82952 33.2288 3.37204 33.2288H19.5505C21.0571 33.2288 22.3127 32.0091 22.3127 30.4666V22.5747C22.3485 21.068 21.093 19.8125 19.5864 19.8125ZM20.7343 30.4666C20.7343 31.1123 20.2321 31.6145 19.5864 31.6145H3.37204C2.72633 31.6145 2.22412 31.1123 2.22412 30.4666V22.5747C2.22412 21.929 2.72633 21.4268 3.37204 21.4268H19.5505C20.1962 21.4268 20.6984 21.929 20.6984 22.5747V30.4666H20.7343Z" fill="black"/>
</g>
<g clip-path="url(#clip1_757_6944)">
<path d="M19.5505 4.73535H3.40793C1.86541 4.73535 0.645752 5.99089 0.645752 7.49753V15.4612C0.645752 17.0037 1.90129 18.2234 3.40793 18.2234H19.5505C21.093 18.2234 22.3127 16.9678 22.3127 15.4612V7.49753C22.3486 5.95501 21.093 4.73535 19.5505 4.73535ZM20.7343 15.4612C20.7343 16.1069 20.1962 16.6091 19.5864 16.6091H3.4438C2.7981 16.6091 2.29588 16.071 2.29588 15.4612V7.49753C2.29588 6.85182 2.83397 6.34961 3.4438 6.34961H19.5864C20.2321 6.34961 20.7343 6.8877 20.7343 7.49753V15.4612Z" fill="black"/>
<path d="M13.237 8.03564C12.5196 8.03564 11.838 8.25088 11.2999 8.64548C10.7977 8.28675 10.1879 8.14326 9.54219 8.14326C7.7127 8.14326 6.20605 9.6499 6.20605 11.4794C6.20605 13.3089 7.7127 14.8155 9.54219 14.8155C10.152 14.8155 10.7618 14.6362 11.2999 14.3133C11.8739 14.7079 12.5196 14.9231 13.237 14.9231C15.1383 14.9231 16.6808 13.3806 16.6808 11.4794C16.6808 9.57816 15.1383 8.03564 13.237 8.03564ZM13.3088 14.0622C12.8424 14.0622 12.412 13.9187 12.0533 13.7394C12.5913 13.1295 12.9501 12.3762 12.9501 11.4794C12.9142 10.5826 12.5913 9.79339 12.0533 9.21943C12.4479 9.0042 12.8424 8.89658 13.3088 8.89658C14.7078 8.89658 15.8916 10.0445 15.8916 11.4794C15.8557 12.9143 14.7078 14.0622 13.3088 14.0622Z" fill="black"/>
</g>
<defs>
<clipPath id="clip0_757_6944">
<rect width="22.9583" height="22.9583" fill="white" transform="translate(0 15.0415)"/>
</clipPath>
<clipPath id="clip1_757_6944">
<rect width="22.9583" height="22.9583" fill="white"/>
</clipPath>
</defs>
</svg>
