<svg width="29" height="48" viewBox="0 0 29 48" fill="none" xmlns="http://www.w3.org/2000/svg">
<path d="M11.2375 36.9439H13.05L14.1375 30.0564H12.3704L11.2375 36.9439Z" fill="black"/>
<path d="M17.7625 32.8203C17.1282 32.5031 16.7657 32.2765 16.7657 31.9593C16.7657 31.6875 17.0829 31.3703 17.8079 31.3703C18.3969 31.3703 18.8047 31.5062 19.1672 31.6421L19.3485 31.6875L19.575 30.2375C19.2125 30.1015 18.6688 29.9656 17.9891 29.9656C16.2219 29.9656 14.9532 30.8718 14.9532 32.2312C14.9532 33.2281 15.8141 33.8171 16.5391 34.1343C17.2188 34.4515 17.4907 34.6781 17.4907 34.9953C17.4907 35.4484 16.9469 35.675 16.4032 35.675C15.6782 35.675 15.2704 35.5843 14.6813 35.3125L14.4547 35.2218L14.1829 36.8078C14.5907 36.9437 15.361 37.125 16.1313 37.125C18.0344 37.1703 19.2579 36.2187 19.2579 34.7687C19.2125 33.9531 18.7594 33.3187 17.7625 32.8203Z" fill="black"/>
<path d="M22.7468 30.0564C22.339 30.0564 21.9765 30.1923 21.7953 30.6455L19.1218 36.9439H20.9343V36.9892C20.9343 36.9892 21.2062 36.1283 21.3421 35.947C21.5234 35.947 23.3812 35.947 23.6078 35.947C23.6531 36.1736 23.8343 36.9892 23.8343 36.9892H25.5109L24.0609 30.1017H22.7468V30.0564ZM21.8406 34.5423C21.9765 34.1345 22.5656 32.6392 22.5656 32.6392C22.5656 32.6845 22.7468 32.2314 22.7921 32.0048L22.9281 32.5939C22.9281 32.5939 23.2906 34.2705 23.3359 34.5876C23.064 34.5423 22.2031 34.5423 21.8406 34.5423Z" fill="black"/>
<path d="M9.78745 30.0564L8.02026 34.8142L7.0687 30.0564H3.48901L5.48276 31.5517L6.93276 36.9439H8.79058L11.6906 30.0564H9.78745Z" fill="black"/>
<path d="M24.7406 25.0266H4.25933C2.3562 25.0266 0.770264 26.5672 0.770264 28.5157V38.4844C0.770264 40.3876 2.31089 41.9735 4.25933 41.9735H24.6953C26.5984 41.9735 28.1843 40.4329 28.1843 38.4844V28.5157C28.2296 26.6125 26.6437 25.0266 24.7406 25.0266ZM26.1906 38.4844C26.1906 39.3 25.5562 39.9344 24.7406 39.9344H4.25933C3.4437 39.9344 2.80933 39.3 2.80933 38.4844V28.5157C2.80933 27.7 3.4437 27.0657 4.25933 27.0657H24.6953C25.5109 27.0657 26.1453 27.7 26.1453 28.5157V38.4844H26.1906Z" fill="black"/>
<path d="M24.6954 5.9812H4.30474C2.3563 5.9812 0.815674 7.56714 0.815674 9.47026V19.5296C0.815674 21.4781 2.40161 23.0187 4.30474 23.0187H24.6954C26.6438 23.0187 28.1844 21.4328 28.1844 19.5296V9.47026C28.2297 7.52183 26.6438 5.9812 24.6954 5.9812ZM26.1907 19.5296C26.1907 20.3453 25.511 20.9796 24.7407 20.9796H4.35005C3.53442 20.9796 2.90005 20.2999 2.90005 19.5296V9.47026C2.90005 8.65464 3.57974 8.02026 4.35005 8.02026H24.7407C25.5563 8.02026 26.1907 8.69995 26.1907 9.47026V19.5296Z" fill="black"/>
<path d="M16.7204 10.1499C15.8141 10.1499 14.9532 10.4218 14.2735 10.9202C13.6391 10.4671 12.8688 10.2858 12.0532 10.2858C9.74224 10.2858 7.83911 12.189 7.83911 14.4999C7.83911 16.8108 9.74224 18.714 12.0532 18.714C12.8235 18.714 13.5938 18.4874 14.2735 18.0796C14.9985 18.578 15.8141 18.8499 16.7204 18.8499C19.1219 18.8499 21.0704 16.9015 21.0704 14.4999C21.0704 12.0983 19.1219 10.1499 16.7204 10.1499ZM16.811 17.7624C16.2219 17.7624 15.6782 17.5812 15.225 17.3546C15.9047 16.5843 16.3579 15.6327 16.3579 14.4999C16.3125 13.3671 15.9047 12.3702 15.225 11.6452C15.7235 11.3733 16.2219 11.2374 16.811 11.2374C18.5782 11.2374 20.0735 12.6874 20.0735 14.4999C20.0282 16.3124 18.5782 17.7624 16.811 17.7624Z" fill="black"/>
</svg>
