<svg width="30" height="30" viewBox="0 0 30 30" fill="none" xmlns="http://www.w3.org/2000/svg">
<path d="M26.9063 8.34375L19.9688 6.75C19.9688 6.60938 20.0156 6.51563 20.0156 6.375C20.0156 4.03125 18.1406 2.15625 15.8438 2.15625C13.5 2.15625 11.625 4.03125 11.625 6.375C11.625 6.84375 11.7656 7.45312 12.0469 8.15625L10.6875 8.4375L4.54688 6.70313C3.65625 6.46875 2.71875 6.60938 1.96875 7.17188C1.21875 7.73438 0.796875 8.57812 0.796875 9.51562V22.9219C0.796875 24.2344 1.6875 25.4063 2.95313 25.7344L10.3594 27.8438C10.3594 27.8438 10.3594 27.8438 10.4063 27.8438C10.5 27.8438 10.5938 27.8906 10.6875 27.8906C10.7812 27.8906 10.8281 27.8906 10.9219 27.8906L19.4531 26.1094L25.6406 27.5625C25.875 27.6094 26.0625 27.6563 26.2969 27.6563C26.9531 27.6563 27.6094 27.4219 28.125 27C28.8281 26.4375 29.25 25.5938 29.25 24.7031V11.2031C29.2031 9.84375 28.2656 8.67188 26.9063 8.34375ZM15.7969 4.26563C16.9688 4.26563 17.8594 5.20313 17.8594 6.375C17.8594 6.89063 17.2031 8.4375 15.75 10.6875C14.2969 8.4375 13.6406 6.9375 13.6406 6.375C13.6875 5.20313 14.625 4.26563 15.7969 4.26563ZM12.9375 10.0781C13.4531 11.0156 14.0625 11.9531 14.625 12.75C14.8594 13.125 15.3281 13.3594 15.75 13.3594C16.2188 13.3594 16.6406 13.125 16.875 12.75C17.3438 12.0469 17.8594 11.2969 18.3281 10.5V24.0938L11.7188 25.5V10.3594L12.9375 10.0781ZM2.95313 22.875V9.51562C2.95313 9.23438 3.09375 9 3.28125 8.85938C3.46875 8.71875 3.75 8.67188 3.98438 8.71875L9.60938 10.3125V25.4063L3.51563 23.6719C3.1875 23.5781 2.95313 23.25 2.95313 22.875ZM27.0938 24.6094C27.0938 24.9375 26.9062 25.1719 26.7656 25.2656C26.6719 25.3594 26.3906 25.5 26.0625 25.4063L20.4375 24.0938V9L26.4375 10.4063C26.8125 10.5 27.0938 10.8281 27.0938 11.2031V24.6094Z" fill="black"/>
<path d="M15.9844 7.26562C16.0312 7.26562 16.125 7.21875 16.1719 7.21875C16.2187 7.21875 16.3125 7.17187 16.3594 7.125C16.4063 7.07812 16.4531 7.03125 16.5 6.98437C16.6875 6.79687 16.8281 6.51562 16.8281 6.23438C16.8281 5.95312 16.7344 5.67187 16.5 5.48437C16.4531 5.4375 16.4063 5.39062 16.3594 5.34375C16.3125 5.29687 16.2187 5.25 16.1719 5.25C16.125 5.20312 16.0312 5.20313 15.9844 5.20313C15.6562 5.15625 15.2812 5.25 15.0469 5.48437C14.8594 5.67187 14.7188 5.95312 14.7188 6.23438C14.7188 6.51562 14.8125 6.79687 15.0469 6.98437C15.2344 7.17187 15.5156 7.3125 15.7969 7.3125C15.8438 7.26562 15.9375 7.26562 15.9844 7.26562Z" fill="black"/>
</svg>
