<svg width="29" height="29" viewBox="0 0 29 29" fill="none" xmlns="http://www.w3.org/2000/svg">
<path d="M24.6954 5.98145H4.30474C2.3563 5.98145 0.815674 7.56738 0.815674 9.47051V19.5299C0.815674 21.4783 2.40161 23.0189 4.30474 23.0189H24.6954C26.6438 23.0189 28.1844 21.433 28.1844 19.5299V9.47051C28.2297 7.52207 26.6438 5.98145 24.6954 5.98145ZM26.1907 19.5299C26.1907 20.3455 25.511 20.9799 24.7407 20.9799H4.35005C3.53442 20.9799 2.90005 20.3002 2.90005 19.5299V9.47051C2.90005 8.65488 3.57974 8.02051 4.35005 8.02051H24.7407C25.5563 8.02051 26.1907 8.7002 26.1907 9.47051V19.5299Z" fill="black"/>
<path d="M16.7204 10.1504C15.8141 10.1504 14.9532 10.4223 14.2735 10.9207C13.6391 10.4676 12.8688 10.2863 12.0532 10.2863C9.74224 10.2863 7.83911 12.1895 7.83911 14.5004C7.83911 16.8113 9.74224 18.7145 12.0532 18.7145C12.8235 18.7145 13.5938 18.4879 14.2735 18.0801C14.9985 18.5785 15.8141 18.8504 16.7204 18.8504C19.1219 18.8504 21.0704 16.902 21.0704 14.5004C21.0704 12.0988 19.1219 10.1504 16.7204 10.1504ZM16.811 17.7629C16.2219 17.7629 15.6782 17.5816 15.225 17.3551C15.9047 16.5848 16.3579 15.6332 16.3579 14.5004C16.3125 13.3676 15.9047 12.3707 15.225 11.6457C15.7235 11.3738 16.2219 11.2379 16.811 11.2379C18.5782 11.2379 20.0735 12.6879 20.0735 14.5004C20.0282 16.3129 18.5782 17.7629 16.811 17.7629Z" fill="black"/>
</svg>
