<svg width="38" height="38" viewBox="0 0 38 38" fill="none" xmlns="http://www.w3.org/2000/svg">
<path d="M30.8155 7.06572C30.2218 3.44385 27.3718 1.06885 23.5718 1.06885H11.5187C10.9249 1.06885 10.3905 1.48447 10.2124 2.07822L3.32491 30.1626C3.20616 30.5782 3.32491 30.9938 3.56241 31.2907C3.79991 31.5876 4.21553 31.8251 4.63116 31.8251H7.95616L7.12491 35.3282C7.00616 35.7438 7.12491 36.1595 7.36241 36.4563C7.59991 36.7532 8.01553 36.9907 8.43116 36.9907H16.9812C17.5749 36.9907 18.1687 36.5751 18.2874 35.9813L20.8405 24.9376H23.5124C25.9468 24.9376 28.3812 23.9876 30.3999 22.2657C32.4187 20.6032 33.8437 18.2876 34.4374 15.8532C35.328 12.0532 33.8437 8.5501 30.8155 7.06572ZM12.5874 3.74072H23.6312C26.2437 3.74072 28.0843 5.4626 28.2624 8.01572C28.3218 8.84697 28.2624 9.5001 28.0843 10.0938C27.6687 11.8751 26.5405 13.7157 24.9374 15.022C23.3937 16.3282 21.553 17.0407 19.7718 17.0407H16.0905C15.4968 17.0407 14.9624 17.4563 14.7843 18.0501L12.1124 29.0938H6.35303L12.5874 3.74072ZM31.8843 15.2595C31.4687 17.1001 30.3405 18.8813 28.7374 20.1876C27.1937 21.4938 25.353 22.2063 23.5718 22.2063H19.8312C19.2374 22.2063 18.6437 22.622 18.5249 23.2157L15.9718 34.2595H10.0937L10.6874 31.7657H13.1218C13.7155 31.7657 14.2499 31.3501 14.428 30.7563L17.0999 19.7126H19.7124C22.1468 19.7126 24.5812 18.7626 26.6593 17.0407C28.678 15.3188 30.103 13.0626 30.6968 10.6876C30.7562 10.5095 30.7562 10.3907 30.8155 10.2126C31.8843 11.4595 32.3593 13.2407 31.8843 15.2595Z" fill="black"/>
</svg>
