<svg width="34" height="34" viewBox="0 0 34 34" fill="none" xmlns="http://www.w3.org/2000/svg">
<path d="M32.6188 29.5907L23.8532 22.4719C27.4657 17.5313 27.0938 10.4657 22.5782 6.00317C20.1876 3.61255 17.0001 2.28442 13.6001 2.28442C10.2001 2.28442 7.0126 3.61255 4.62197 6.00317C-0.318652 10.9438 -0.318652 19.0188 4.62197 23.9594C7.0126 26.3501 10.2001 27.6782 13.6001 27.6782C16.8407 27.6782 19.8688 26.4563 22.2595 24.2782L31.1313 31.4501C31.3438 31.6094 31.6095 31.7157 31.8751 31.7157C32.247 31.7157 32.5657 31.5563 32.7782 31.2907C33.2032 30.7594 33.1501 30.0157 32.6188 29.5907ZM13.6001 25.2876C10.8376 25.2876 8.2876 24.2251 6.32197 22.2594C2.28447 18.2219 2.28447 11.6875 6.32197 7.70317C8.2876 5.73755 10.8376 4.67505 13.6001 4.67505C16.3626 4.67505 18.9126 5.73755 20.8782 7.70317C24.9157 11.7407 24.9157 18.2751 20.8782 22.2594C18.9657 24.2251 16.3626 25.2876 13.6001 25.2876Z" fill="#FBF1F2"/>
</svg>
