<svg width="48" height="48" viewBox="0 0 48 48" fill="none" xmlns="http://www.w3.org/2000/svg">
<path d="M26.4 24.0002L44.7 5.7002C45.375 5.0252 45.375 3.9752 44.7 3.3002C44.025 2.6252 42.975 2.6252 42.3 3.3002L24 21.6002L5.69995 3.3002C5.02495 2.6252 3.97495 2.6252 3.29995 3.3002C2.62495 3.9752 2.62495 5.0252 3.29995 5.7002L21.6 24.0002L3.29995 42.3002C2.62495 42.9752 2.62495 44.0252 3.29995 44.7002C3.59995 45.0002 4.04995 45.2252 4.49995 45.2252C4.94995 45.2252 5.39995 45.0752 5.69995 44.7002L24 26.4002L42.3 44.7002C42.6 45.0002 43.05 45.2252 43.5 45.2252C43.95 45.2252 44.4 45.0752 44.7 44.7002C45.375 44.0252 45.375 42.9752 44.7 42.3002L26.4 24.0002Z" fill="black"/>
</svg>
