<svg width="50" height="50" viewBox="0 0 50 50" fill="none" xmlns="http://www.w3.org/2000/svg">
<path d="M25 28.75C31.4844 28.75 36.7188 23.5156 36.7188 17.0312C36.7188 10.5469 31.4844 5.3125 25 5.3125C18.5156 5.3125 13.2812 10.5469 13.2812 17.0312C13.2812 23.5156 18.5156 28.75 25 28.75ZM25 8.82812C29.5312 8.82812 33.2031 12.5 33.2031 17.0312C33.2031 21.5625 29.5312 25.2344 25 25.2344C20.4688 25.2344 16.7969 21.5625 16.7969 17.0312C16.7969 12.5 20.4688 8.82812 25 8.82812Z" fill="#1D3F47"/>
<path d="M48.0468 41.5625C41.6406 36.1719 33.5156 33.2031 24.9999 33.2031C16.4843 33.2031 8.35931 36.1719 1.95306 41.5625C1.24994 42.1875 1.09369 43.2813 1.71869 44.0625C2.34369 44.7656 3.43744 44.9219 4.21869 44.2969C9.99994 39.375 17.3437 36.7188 24.9999 36.7188C32.6562 36.7188 39.9999 39.375 45.7031 44.2188C46.0156 44.5312 46.4062 44.6094 46.8749 44.6094C47.3437 44.6094 47.8906 44.375 48.2031 43.9844C48.8281 43.2812 48.7499 42.1875 48.0468 41.5625Z" fill="#1D3F47"/>
</svg>
