<svg width="36" height="36" viewBox="0 0 36 36" fill="none" xmlns="http://www.w3.org/2000/svg">
<path d="M18 20.7C22.6687 20.7 26.4375 16.9312 26.4375 12.2625C26.4375 7.5937 22.6687 3.82495 18 3.82495C13.3312 3.82495 9.5625 7.5937 9.5625 12.2625C9.5625 16.9312 13.3312 20.7 18 20.7ZM18 6.3562C21.2625 6.3562 23.9062 8.99995 23.9062 12.2625C23.9062 15.525 21.2625 18.1687 18 18.1687C14.7375 18.1687 12.0938 15.525 12.0938 12.2625C12.0938 8.99995 14.7375 6.3562 18 6.3562Z" fill="#FBF1F2"/>
<path d="M34.5937 29.925C29.9812 26.0438 24.1312 23.9062 18 23.9062C11.8687 23.9062 6.01872 26.0438 1.40622 29.925C0.899974 30.375 0.787474 31.1625 1.23747 31.725C1.68747 32.2313 2.47497 32.3438 3.03747 31.8938C7.19997 28.35 12.4875 26.4375 18 26.4375C23.5125 26.4375 28.8 28.35 32.9062 31.8375C33.1312 32.0625 33.4125 32.1187 33.75 32.1187C34.0875 32.1187 34.4812 31.95 34.7062 31.6688C35.1562 31.1625 35.1 30.375 34.5937 29.925Z" fill="#FBF1F2"/>
</svg>
