<svg width="37" height="36" viewBox="0 0 37 36" fill="none" xmlns="http://www.w3.org/2000/svg">
<path d="M18.9451 20.7C23.6175 20.7 27.3892 16.9313 27.3892 12.2625C27.3892 7.59376 23.6175 3.82501 18.9451 3.82501C14.2727 3.82501 10.501 7.59376 10.501 12.2625C10.501 16.9313 14.2727 20.7 18.9451 20.7ZM18.9451 6.35626C22.2101 6.35626 24.8559 9.00001 24.8559 12.2625C24.8559 15.525 22.2101 18.1688 18.9451 18.1688C15.68 18.1688 13.0342 15.525 13.0342 12.2625C13.0342 9.00001 15.68 6.35626 18.9451 6.35626Z" fill="#FBF1F2"/>
<path d="M35.5516 29.925C30.9355 26.0438 25.081 23.9062 18.9449 23.9062C12.8089 23.9062 6.95432 26.0438 2.33822 29.925C1.83157 30.375 1.71898 31.1625 2.16934 31.725C2.61969 32.2313 3.4078 32.3438 3.97074 31.8938C8.13649 28.35 13.4281 26.4375 18.9449 26.4375C24.4617 26.4375 29.7534 28.35 33.8628 31.8375C34.088 32.0625 34.3695 32.1187 34.7072 32.1187C35.045 32.1187 35.4391 31.95 35.6642 31.6688C36.1146 31.1625 36.0583 30.375 35.5516 29.925Z" fill="#FBF1F2"/>
</svg>
