<svg width="29" height="29" viewBox="0 0 29 29" fill="none" xmlns="http://www.w3.org/2000/svg">
<path d="M11.2375 17.9437H13.05L14.1375 11.0562H12.3704L11.2375 17.9437Z" fill="black"/>
<path d="M17.7625 13.82C17.1282 13.5028 16.7657 13.2763 16.7657 12.9591C16.7657 12.6872 17.0829 12.37 17.8079 12.37C18.3969 12.37 18.8047 12.506 19.1672 12.6419L19.3485 12.6872L19.575 11.2372C19.2125 11.1013 18.6688 10.9653 17.9891 10.9653C16.2219 10.9653 14.9532 11.8716 14.9532 13.231C14.9532 14.2278 15.8141 14.8169 16.5391 15.1341C17.2188 15.4513 17.4907 15.6778 17.4907 15.995C17.4907 16.4481 16.9469 16.6747 16.4032 16.6747C15.6782 16.6747 15.2704 16.5841 14.6813 16.3122L14.4547 16.2216L14.1829 17.8075C14.5907 17.9435 15.361 18.1247 16.1313 18.1247C18.0344 18.17 19.2579 17.2185 19.2579 15.7685C19.2125 14.9528 18.7594 14.3185 17.7625 13.82Z" fill="black"/>
<path d="M22.7468 11.0562C22.339 11.0562 21.9765 11.1921 21.7953 11.6452L19.1218 17.9437H20.9343V17.989C20.9343 17.989 21.2062 17.128 21.3421 16.9468C21.5234 16.9468 23.3812 16.9468 23.6078 16.9468C23.6531 17.1733 23.8343 17.989 23.8343 17.989H25.5109L24.0609 11.1015H22.7468V11.0562ZM21.8406 15.5421C21.9765 15.1343 22.5656 13.639 22.5656 13.639C22.5656 13.6843 22.7468 13.2312 22.7921 13.0046L22.9281 13.5937C22.9281 13.5937 23.2906 15.2702 23.3359 15.5874C23.064 15.5421 22.2031 15.5421 21.8406 15.5421Z" fill="black"/>
<path d="M9.78745 11.0562L8.02026 15.814L7.0687 11.0562H3.48901L5.48276 12.5515L6.93276 17.9437H8.79058L11.6906 11.0562H9.78745Z" fill="black"/>
<path d="M24.7406 6.02637H4.25933C2.3562 6.02637 0.770264 7.56699 0.770264 9.51543V19.4842C0.770264 21.3873 2.31089 22.9732 4.25933 22.9732H24.6953C26.5984 22.9732 28.1843 21.4326 28.1843 19.4842V9.51543C28.2296 7.6123 26.6437 6.02637 24.7406 6.02637ZM26.1906 19.4842C26.1906 20.2998 25.5562 20.9342 24.7406 20.9342H4.25933C3.4437 20.9342 2.80933 20.2998 2.80933 19.4842V9.51543C2.80933 8.6998 3.4437 8.06543 4.25933 8.06543H24.6953C25.5109 8.06543 26.1453 8.6998 26.1453 9.51543V19.4842H26.1906Z" fill="black"/>
</svg>
