<svg width="36" height="36" viewBox="0 0 36 36" fill="none" xmlns="http://www.w3.org/2000/svg">
<circle cx="18" cy="18" r="15" fill="white"/>
<path d="M18 1.0127C8.6062 1.0127 1.01245 8.60645 1.01245 18.0002C1.01245 27.3939 8.6062 35.0439 18 35.0439C27.3937 35.0439 35.0437 27.3939 35.0437 18.0002C35.0437 8.60645 27.3937 1.0127 18 1.0127ZM18 32.5127C10.0125 32.5127 3.5437 25.9877 3.5437 18.0002C3.5437 10.0127 10.0125 3.54395 18 3.54395C25.9875 3.54395 32.5125 10.0689 32.5125 18.0564C32.5125 25.9877 25.9875 32.5127 18 32.5127Z" fill="black"/>
<path d="M22.8374 12.7688L16.1437 19.2938L13.1062 16.3125C12.5999 15.8063 11.8124 15.8625 11.3062 16.3125C10.7999 16.8188 10.8562 17.6063 11.3062 18.1125L14.9062 21.6C15.2437 21.9375 15.6937 22.1063 16.1437 22.1063C16.5937 22.1063 17.0437 21.9375 17.3812 21.6L24.6374 14.625C25.1437 14.1188 25.1437 13.3313 24.6374 12.825C24.1312 12.3188 23.3437 12.3188 22.8374 12.7688Z" fill="black"/>
</svg>
