<svg width="36" height="39" viewBox="0 0 36 39" fill="none" xmlns="http://www.w3.org/2000/svg">
<path d="M26.4375 12.0264V10.4616C26.4375 5.64699 23.0625 1.55457 18.7875 1.19347C16.425 0.952741 14.0625 1.85548 12.3187 3.5406C10.575 5.22571 9.56245 7.63302 9.56245 10.1005V12.0264C6.29995 12.6884 3.82495 15.7577 3.82495 19.489V30.3821C3.82495 34.3542 6.86245 37.5438 10.5187 37.5438H25.3687C29.0812 37.5438 32.1187 34.294 32.1187 30.3219V19.3687C32.175 15.7577 29.7 12.7486 26.4375 12.0264ZM14.0062 5.52663C15.2437 4.32297 16.875 3.72115 18.5625 3.90169C21.5437 4.20261 23.9062 7.09138 23.9062 10.4616V11.8458H12.0937V10.0403C12.0937 8.35522 12.7687 6.73028 14.0062 5.52663ZM29.6437 30.3821C29.6437 32.8496 27.7312 34.8958 25.425 34.8958H10.575C8.2687 34.8958 6.41245 32.9098 6.41245 30.4423V19.489C6.41245 16.7808 8.43745 14.6142 10.9687 14.6142H25.0312C27.5625 14.6142 29.6437 16.7808 29.6437 19.3687V30.3821Z" fill="black"/>
<path d="M18 20.8733C17.325 20.8733 16.7063 21.4751 16.7063 22.2575V28.5767C16.7063 29.2989 17.2688 29.9609 18 29.9609C18.675 29.9609 19.2938 29.3591 19.2938 28.5767V22.1973C19.2938 21.4751 18.675 20.8733 18 20.8733Z" fill="black"/>
</svg>
