<svg width="139" height="60" viewBox="0 0 139 60" fill="none" xmlns="http://www.w3.org/2000/svg">
<g clip-path="url(#clip0_740_4586)">
<path d="M0.62384 51.7577V30.2814H5.55016C9.15478 30.2814 10.9571 32.3827 10.9571 36.5853C10.9571 37.8517 10.7615 38.9279 10.3712 39.813C9.98094 40.6981 9.29422 41.4114 8.3137 41.9548L11.6175 51.7577H8.37334L5.51946 42.588H3.68733V51.7577H0.62384ZM3.68733 33.1771V39.8729H5.43C5.97026 39.8729 6.40088 39.7971 6.72188 39.6465C7.04199 39.496 7.29283 39.2802 7.47262 38.9984C7.63312 38.7174 7.74275 38.3704 7.80326 37.9574C7.86378 37.5452 7.8936 37.0679 7.8936 36.5245C7.8936 35.9811 7.86378 35.5038 7.80326 35.0917C7.74275 34.6795 7.62259 34.3228 7.4428 34.0207C7.06217 33.458 6.34124 33.1762 5.28003 33.1762H3.68821L3.68733 33.1771Z" fill="#FBF1F2"/>
<path d="M16.5438 51.7577L21.3201 30.2814H23.8732L28.6495 51.7577H25.586L24.6853 47.1429H20.5097L19.609 51.7577H16.5455H16.5438ZM24.1135 44.2472L22.612 36.4655H22.5515L21.05 44.2472H24.1143H24.1135Z" fill="#FBF1F2"/>
<path d="M34.7467 51.7577V30.2814H37.8111V51.7577H34.7467Z" fill="#FBF1F2"/>
<path d="M45.1703 51.7577V30.2814H48.1136L52.7391 43.2212H52.7996V30.2814H55.8631V51.7577H52.9794L48.2934 38.8478H48.2337V51.7577H45.1694H45.1703Z" fill="#FBF1F2"/>
<path d="M65.9858 51.7577V42.6787L61.7805 30.2814H65.0246L67.4873 38.8178H67.5479L70.0106 30.2814H73.2547L69.0493 42.6787V51.7577H65.985H65.9858Z" fill="#FBF1F2"/>
<path d="M79.2922 51.7577V30.2814H83.8283C85.5902 30.2814 86.9268 30.764 87.8381 31.7292C88.7493 32.6944 89.2045 34.0621 89.2045 35.8314V45.8756C89.2045 47.8862 88.7186 49.3702 87.7477 50.3248C86.776 51.2804 85.3797 51.7577 83.5573 51.7577H79.2922ZM82.3566 33.1771V48.862H83.7686C84.6299 48.862 85.2403 48.6462 85.6008 48.2138C85.9612 47.7814 86.1419 47.1033 86.1419 46.1777V35.8314C86.1419 34.9869 85.9717 34.3334 85.6315 33.871C85.2903 33.4087 84.6702 33.1771 83.7686 33.1771H82.3566Z" fill="#FBF1F2"/>
<path d="M94.8526 51.7577L99.6289 30.2814H102.182L106.958 51.7577H103.894L102.993 47.1429H98.8177L97.917 51.7577H94.8526ZM102.422 44.2472L100.921 36.4655H100.861L99.3597 44.2472H102.423H102.422Z" fill="#FBF1F2"/>
<path d="M114.168 51.7577V42.6787L109.962 30.2814H113.206L115.669 38.8178H115.729L118.191 30.2814H121.436L117.23 42.6787V51.7577H114.167H114.168Z" fill="#FBF1F2"/>
<path d="M137.386 36.4655H134.323V35.7716C134.323 35.0679 134.158 34.4593 133.827 33.9468C133.497 33.4342 132.941 33.178 132.16 33.178C131.74 33.178 131.399 33.259 131.139 33.4193C130.879 33.5804 130.668 33.7812 130.509 34.0225C130.348 34.2841 130.238 34.5809 130.178 34.912C130.117 35.2432 130.088 35.591 130.088 35.953C130.088 36.3748 130.102 36.7271 130.132 37.0089C130.162 37.2907 130.238 37.5417 130.358 37.7628C130.478 37.9847 130.653 38.1749 130.883 38.3361C131.113 38.4973 131.429 38.6584 131.829 38.8187L134.172 39.754C134.853 40.0156 135.403 40.322 135.824 40.6743C136.244 41.0266 136.575 41.4335 136.815 41.8958C137.035 42.3784 137.185 42.9262 137.266 43.5401C137.346 44.1539 137.386 44.8523 137.386 45.6361C137.386 46.5414 137.296 47.3807 137.116 48.1548C136.936 48.929 136.645 49.5877 136.245 50.1302C135.825 50.6938 135.273 51.1359 134.593 51.4574C133.911 51.7788 133.081 51.94 132.099 51.94C131.358 51.94 130.667 51.8088 130.027 51.5481C129.386 51.2874 128.835 50.9246 128.375 50.4622C127.914 49.9999 127.549 49.4618 127.278 48.8488C127.008 48.2359 126.873 47.5665 126.873 46.8426V45.6969H129.937V46.6621C129.937 47.2248 130.102 47.733 130.432 48.1857C130.763 48.6383 131.318 48.8647 132.099 48.8647C132.62 48.8647 133.026 48.7889 133.316 48.6383C133.606 48.4877 133.832 48.272 133.992 47.9901C134.153 47.7092 134.247 47.3719 134.277 46.98C134.307 46.5881 134.322 46.1504 134.322 45.6678C134.322 45.105 134.302 44.6427 134.262 44.2807C134.222 43.9188 134.142 43.6272 134.022 43.4062C133.882 43.1851 133.697 43.0046 133.466 42.8628C133.235 42.7228 132.93 42.5713 132.549 42.4101L130.357 41.5057C129.035 40.9623 128.149 40.2437 127.699 39.3489C127.248 38.4541 127.022 37.333 127.022 35.9856C127.022 35.1815 127.132 34.4171 127.353 33.6932C127.573 32.9692 127.904 32.3466 128.344 31.8235C128.764 31.3012 129.3 30.8838 129.951 30.572C130.602 30.2603 131.378 30.1044 132.278 30.1044C133.039 30.1044 133.735 30.2453 134.366 30.5262C134.996 30.808 135.542 31.1797 136.003 31.642C136.924 32.6073 137.385 33.7134 137.385 34.9596V36.4673L137.386 36.4655Z" fill="#FBF1F2"/>
<path fill-rule="evenodd" clip-rule="evenodd" d="M22.569 27.4385C24.7581 27.1514 28.0996 26.4363 28.3136 26.2575C42.3857 14.6396 26.6639 32.646 42.1191 19.9431C48.7135 14.5242 46.3551 16.8087 51.5358 21.2614C53.3671 22.8387 55.3483 18.6846 53.4644 15.3635C53.4091 15.2675 57.3391 10.5453 57.3953 10.5074C57.3479 10.1463 58.9222 18.3032 58.8406 12.6545C58.8406 12.614 59.9755 8.68529 60.6964 8.63862C62.2549 8.53822 60.0387 7.13706 62.7171 5.45583C63.3618 5.05248 64.2511 3.00313 64.4081 2.60242C64.4344 2.64293 68.5047 6.30657 69.123 7.05956C69.7948 7.87507 73.3644 8.70819 73.2319 11.5722C73.2249 11.7307 74.5466 14.5903 74.4624 16.1121C74.3914 17.4146 77.9872 18.9673 79.3045 22.2416C80.9928 26.4381 78.8485 18.2407 80.5754 20.8827C81.9804 23.0369 82.9714 22.2575 85.328 25.7538C85.5885 26.1369 86.2384 27.0414 86.6462 27.4377H86.9874C86.9602 27.2457 86.8444 26.8916 86.6032 26.3192C86.2121 25.3901 85.7911 21.9448 85.2798 21.6278C84.401 21.0862 81.0148 18.8765 81.0262 18.1641C81.0814 14.747 85.4534 20.6009 84.2984 18.1887C82.0847 13.5669 83.0556 16.5692 81.8243 15.8902C82.3847 15.1794 82.0049 14.7206 82.161 14.2882C83.0074 14.0055 83.1521 14.415 81.191 12.54C79.1054 10.5488 81.8207 9.63555 80.6867 7.12473C80.2017 6.05382 81.9786 6.15598 83.1784 7.13353C83.7941 7.63728 88.3222 9.63731 91.2892 10.8667C93.6423 13.6268 96.4252 15.4683 99.6377 16.393C97.1873 15.0139 95.1771 13.4771 93.6072 11.78C93.7195 11.8179 93.8011 11.8399 93.8449 11.8487C97.3206 12.4211 96.4576 13.0605 98.5239 14.2213C99.8509 14.4018 102.614 17.7185 106.392 18.6784C108.39 19.1883 110.453 22.7877 112.607 24.3315C116.689 27.2518 113.904 25.7547 118.366 27.0625C118.805 27.192 119.177 27.3161 119.505 27.4368H121.072C118.656 26.6063 117.147 24.5279 115.423 23.9281C112.027 22.7524 110.299 20.2108 108.103 17.7185C105.784 15.0852 102.492 15.3706 101.288 13.9077C100.461 12.9011 95.6279 10.319 94.3027 9.88302C94.2694 9.8522 94.1835 9.8337 94.1282 9.79584C93.9475 9.67342 93.8598 9.67342 93.7283 9.60032C93.4257 9.42683 93.3354 9.60473 93.0082 9.59768C92.8854 9.59768 92.4715 9.33524 92.4583 9.29913C92.4224 9.27887 92.2619 9.21194 92.2391 9.19433C92.033 9.02083 91.4918 8.6351 91.2366 8.60868C91.0551 8.59106 90.7341 8.37265 90.6016 8.33038C90.2491 8.21413 90.1438 7.94904 89.6395 7.86274C89.2449 7.79581 88.7371 7.66458 88.3924 7.45498C88.3968 7.41271 84.1993 6.23436 83.9712 6.17447C83.93 6.16566 83.8335 6.12515 83.7099 6.06967C82.8311 5.07802 81.405 4.87546 80.2991 4.25194C79.7895 3.9666 77.7724 5.0472 77.0602 5.51044C76.6866 5.75527 76.4866 5.75086 76.2419 5.95782C76.0919 6.08464 75.0211 6.55933 74.8483 6.40785C74.6975 6.27399 74.7966 6.32066 74.6448 6.28808C74.0195 6.14981 74.1546 6.50825 73.852 6.55052C73.3126 6.6245 73.5424 6.70464 73.2679 6.79975C72.8145 6.96268 73.0951 7.07629 72.6189 7.06748C72.2532 6.51529 71.2174 6.36117 70.7324 5.63285C70.6254 5.46992 69.7185 4.65705 69.4282 4.65089C69.0625 4.64649 68.0206 3.56853 67.4365 3.37478C67.4312 3.37214 66.7506 2.89129 66.7138 2.86046C66.7085 2.85606 66.1955 2.62884 66.0586 2.50379C65.8745 2.3347 65.2132 2.06256 64.6992 1.92254C64.4738 1.79131 64.2476 1.67947 64.0336 1.62839C63.2635 1.43904 63.1828 0.993416 62.6277 1.23825C61.5095 1.72614 61.7585 1.51918 60.5596 2.30563C60.4465 2.28978 59.8212 2.41484 59.7598 2.47472C59.4397 2.78472 59.2037 3.14757 58.8468 3.14052C58.2057 3.12907 58.41 3.26998 57.6829 3.65043C57.0681 3.97805 56.9462 4.21583 56.2736 4.49677C55.9754 4.62359 55.2702 5.28938 54.972 5.25856C54.7931 5.36776 54.4949 5.12029 54.1432 5.66367C54.0792 5.76143 53.6837 5.75086 53.3153 6.2141C53.3004 6.23436 52.9233 6.4193 52.8198 6.52586C52.1848 7.17845 52.5269 6.77774 52.2401 6.93978C51.8366 7.1714 51.4095 7.42504 50.9798 7.59501C50.1273 7.92439 50.1632 8.17186 49.7528 8.41493C49.209 8.73814 49.1739 8.92748 48.4776 9.16967C48.1022 9.30353 46.8691 10.2767 46.4621 10.3507C46.0701 10.4176 44.6283 11.7765 44.0617 12.0231C44.017 12.0451 43.881 12.1481 43.8424 12.1834C43.0093 12.2838 42.7268 12.8562 42.0129 13.1988C41.6867 13.3547 41.6148 13.5572 41.2122 13.6691C40.6404 13.8232 39.8125 14.6713 39.5748 14.7514C39.0933 14.9188 38.3127 15.6515 37.8698 15.6092C37.8628 15.6066 36.5385 16.3552 36.5016 16.4089C36.4648 16.46 36.4183 16.4776 36.4201 16.5269C35.9324 16.91 36.2482 16.2371 35.3141 17.3486C34.716 18.0593 33.1654 18.5357 32.1787 19.6357C31.9595 19.8805 31.8656 19.2905 30.7799 20.9162C29.8151 22.357 28.9425 22.1729 27.726 23.1479C26.8157 23.8762 26.2052 23.5618 24.8327 24.6626C23.8925 25.4156 22.8558 26.0612 21.8183 26.616C21.4149 26.8344 21.0877 27.302 20.6834 27.4359H22.569V27.4385Z" fill="#FBF1F2"/>
<path fill-rule="evenodd" clip-rule="evenodd" d="M134.849 58.4509C90.9288 59.6222 46.9217 59.6222 2.99622 58.4509C46.934 57.7798 90.9086 57.7798 134.849 58.4509Z" fill="#FBF1F2"/>
</g>
<defs>
<clipPath id="clip0_740_4586">
<rect width="138.108" height="60" fill="white" transform="translate(0.0335693)"/>
</clipPath>
</defs>
</svg>
