<?xml version="1.0" encoding="UTF-8"?><svg id="Layer_1" xmlns="http://www.w3.org/2000/svg" viewBox="0 0 1574.71 681.29"><defs><style>.cls-1{fill-rule:evenodd;}.cls-1,.cls-2{fill:#053541;}</style></defs><path class="cls-2" d="m6.73,587.7v-243.86h56.17c41.1,0,61.65,23.86,61.65,71.58,0,14.38-2.23,26.6-6.68,36.65-4.45,10.05-12.28,18.15-23.46,24.32l37.67,111.31h-36.99l-32.54-104.12h-20.89v104.12H6.73Zm34.93-210.98v76.03h19.87c6.16,0,11.07-.86,14.73-2.57,3.65-1.71,6.51-4.16,8.56-7.36,1.83-3.19,3.08-7.13,3.77-11.82.69-4.68,1.03-10.1,1.03-16.27s-.34-11.59-1.03-16.27c-.69-4.68-2.06-8.73-4.11-12.16-4.34-6.39-12.56-9.59-24.66-9.59h-18.15Z"/><path class="cls-2" d="m188.25,587.7l54.46-243.86h29.11l54.46,243.86h-34.93l-10.27-52.4h-47.61l-10.27,52.4h-34.93Zm86.31-85.28l-17.12-88.36h-.69l-17.12,88.36h34.94Z"/><path class="cls-2" d="m395.8,587.7v-243.86h34.94v243.86h-34.94Z"/><path class="cls-2" d="m514.65,587.7v-243.86h33.56l52.74,146.93h.69v-146.93h34.93v243.86h-32.88l-53.43-146.59h-.68v146.59h-34.94Z"/><path class="cls-2" d="m751.99,587.7v-103.09l-47.95-140.77h36.99l28.08,96.93h.69l28.08-96.93h36.99l-47.95,140.77v103.09h-34.94Z"/><path class="cls-2" d="m903.71,587.7v-243.86h51.72c20.09,0,35.33,5.48,45.72,16.44,10.39,10.96,15.58,26.49,15.58,46.58v114.05c0,22.83-5.54,39.68-16.61,50.52-11.08,10.85-27,16.27-47.78,16.27h-48.63Zm34.94-210.98v178.1h16.1c9.82,0,16.78-2.45,20.89-7.36,4.11-4.91,6.17-12.61,6.17-23.12v-117.48c0-9.59-1.94-17.01-5.82-22.26-3.89-5.25-10.96-7.88-21.24-7.88h-16.1Z"/><path class="cls-2" d="m1081.13,587.7l54.46-243.86h29.11l54.46,243.86h-34.94l-10.27-52.4h-47.61l-10.27,52.4h-34.94Zm86.31-85.28l-17.12-88.36h-.68l-17.12,88.36h34.93Z"/><path class="cls-2" d="m1301.36,587.7v-103.09l-47.95-140.77h36.99l28.08,96.93h.68l28.08-96.93h36.99l-47.95,140.77v103.09h-34.93Z"/><path class="cls-2" d="m1566.1,414.06h-34.93v-7.88c0-7.99-1.88-14.9-5.65-20.72-3.77-5.82-10.1-8.73-19.01-8.73-4.79,0-8.68.92-11.64,2.74-2.97,1.83-5.37,4.11-7.19,6.85-1.83,2.97-3.08,6.34-3.77,10.1s-1.03,7.71-1.03,11.82c0,4.79.17,8.79.51,11.99.34,3.2,1.2,6.05,2.57,8.56,1.37,2.52,3.37,4.68,5.99,6.51,2.62,1.83,6.22,3.66,10.79,5.48l26.71,10.62c7.76,2.97,14.04,6.45,18.84,10.45,4.79,4,8.56,8.62,11.3,13.87,2.51,5.48,4.22,11.7,5.14,18.67.91,6.97,1.37,14.9,1.37,23.8,0,10.28-1.03,19.81-3.08,28.6-2.05,8.79-5.37,16.27-9.93,22.43-4.79,6.4-11.08,11.42-18.84,15.07-7.77,3.65-17.24,5.48-28.43,5.48-8.45,0-16.33-1.49-23.63-4.45-7.31-2.96-13.59-7.08-18.84-12.33-5.25-5.25-9.42-11.36-12.5-18.32-3.08-6.96-4.62-14.56-4.62-22.78v-13.01h34.93v10.96c0,6.39,1.88,12.16,5.65,17.3s10.1,7.71,19.01,7.71c5.93,0,10.56-.86,13.87-2.57,3.31-1.71,5.88-4.16,7.71-7.36,1.83-3.19,2.91-7.02,3.25-11.47.34-4.45.51-9.42.51-14.9,0-6.39-.23-11.64-.68-15.75-.46-4.11-1.37-7.42-2.74-9.93-1.6-2.51-3.71-4.56-6.34-6.17-2.63-1.59-6.11-3.31-10.45-5.14l-25-10.27c-15.07-6.17-25.17-14.33-30.31-24.49-5.14-10.16-7.71-22.89-7.71-38.19,0-9.13,1.25-17.81,3.77-26.03,2.51-8.22,6.28-15.29,11.3-21.23,4.79-5.93,10.9-10.67,18.32-14.21,7.42-3.54,16.27-5.31,26.54-5.31,8.67,0,16.61,1.6,23.8,4.79,7.19,3.2,13.41,7.42,18.67,12.67,10.5,10.96,15.75,23.52,15.75,37.67v17.12Z"/><path class="cls-1" d="m256.95,311.56c24.96-3.26,63.06-11.38,65.5-13.41,160.45-131.92-18.81,72.54,157.41-71.7,75.19-61.53,48.3-35.59,107.37,14.97,20.88,17.91,43.47-29.26,21.99-66.97-.63-1.09,44.18-54.71,44.82-55.14-.54-4.1,17.41,88.52,16.48,24.38,0-.46,12.94-45.07,21.16-45.6,17.77-1.14-7.5-17.05,23.04-36.14,7.35-4.58,17.49-27.85,19.28-32.4.3.46,46.71,42.06,53.76,50.61,7.66,9.26,48.36,18.72,46.85,51.24-.08,1.8,14.99,34.27,14.03,51.55-.81,14.79,40.19,32.42,55.21,69.6,19.25,47.65-5.2-45.43,14.49-15.43,16.02,24.46,27.32,15.61,54.19,55.31,2.97,4.35,10.38,14.62,15.03,19.12h3.89c-.31-2.18-1.63-6.2-4.38-12.7-4.46-10.55-9.26-49.67-15.09-53.27-10.02-6.15-48.63-31.24-48.5-39.33.63-38.8,50.48,27.67,37.31.28-25.24-52.48-14.17-18.39-28.21-26.1,6.39-8.07,2.06-13.28,3.84-18.19,9.65-3.21,11.3,1.44-11.06-19.85-23.78-22.61,7.18-32.98-5.75-61.49-5.53-12.16,14.73-11,28.41.1,7.02,5.72,58.65,28.43,92.48,42.39,26.83,31.34,58.56,52.25,95.19,62.75-27.94-15.66-50.86-33.11-68.76-52.38,1.28.43,2.21.68,2.71.78,39.63,6.5,29.79,13.76,53.35,26.94,15.13,2.05,46.64,39.71,89.71,50.61,22.78,5.79,46.31,46.66,70.87,64.19,46.54,33.16,14.78,16.16,65.66,31.01,5.01,1.47,9.25,2.88,12.99,4.25h17.86c-27.54-9.43-44.75-33.03-64.41-39.84-38.72-13.35-58.42-42.21-83.46-70.51-26.44-29.9-63.98-26.66-77.7-43.27-9.43-11.43-64.54-40.75-79.65-45.7-.38-.35-1.36-.56-1.99-.99-2.06-1.39-3.06-1.39-4.56-2.22-3.45-1.97-4.48.05-8.21-.03-1.4,0-6.12-2.98-6.27-3.39-.41-.23-2.24-.99-2.5-1.19-2.35-1.97-8.52-6.35-11.43-6.65-2.07-.2-5.73-2.68-7.24-3.16-4.02-1.32-5.22-4.33-10.97-5.31-4.5-.76-10.29-2.25-14.22-4.63.05-.48-47.81-13.86-50.41-14.54-.47-.1-1.57-.56-2.98-1.19-10.02-11.26-26.28-13.56-38.89-20.64-5.81-3.24-28.81,9.03-36.93,14.29-4.26,2.78-6.54,2.73-9.33,5.08-1.71,1.44-13.92,6.83-15.89,5.11-1.72-1.52-.59-.99-2.32-1.36-7.13-1.57-5.59,2.5-9.04,2.98-6.15.84-3.53,1.75-6.66,2.83-5.17,1.85-1.97,3.14-7.4,3.04-4.17-6.27-15.98-8.02-21.51-16.29-1.22-1.85-11.56-11.08-14.87-11.15-4.17-.05-16.05-12.29-22.71-14.49-.06-.03-7.82-5.49-8.24-5.84-.06-.05-5.91-2.63-7.47-4.05-2.1-1.92-9.64-5.01-15.5-6.6-2.57-1.49-5.15-2.76-7.59-3.34-8.78-2.15-9.7-7.21-16.03-4.43-12.75,5.54-9.91,3.19-23.58,12.12-1.29-.18-8.42,1.24-9.12,1.92-3.65,3.52-6.34,7.64-10.41,7.56-7.31-.13-4.98,1.47-13.27,5.79-7.01,3.72-8.4,6.42-16.07,9.61-3.4,1.44-11.44,9-14.84,8.65-2.04,1.24-5.44-1.57-9.45,4.6-.73,1.11-5.24.99-9.44,6.25-.17.23-4.47,2.33-5.65,3.54-7.24,7.41-3.34,2.86-6.61,4.7-4.6,2.63-9.47,5.51-14.37,7.44-9.72,3.74-9.31,6.55-13.99,9.31-6.2,3.67-6.6,5.82-14.54,8.57-4.28,1.52-18.34,12.57-22.98,13.41-4.47.76-20.91,16.19-27.37,18.99-.51.25-2.06,1.42-2.5,1.82-9.5,1.14-12.72,7.64-20.86,11.53-3.72,1.77-4.54,4.07-9.13,5.34-6.52,1.75-15.96,11.38-18.67,12.29-5.49,1.9-14.39,10.22-19.44,9.74-.08-.03-15.18,8.47-15.6,9.08-.42.58-.95.78-.93,1.34-5.56,4.35-1.96-3.29-12.61,9.33-6.82,8.07-24.5,13.48-35.75,25.97-2.5,2.78-3.57-3.92-15.95,14.54-11,16.36-20.95,14.27-34.82,25.34-10.38,8.27-17.34,4.7-32.99,17.2-10.72,8.55-22.54,15.88-34.37,22.18-4.6,2.48-8.33,7.79-12.94,9.31h21.5Z"/><path class="cls-1" d="m1537.17,663.7c-500.78,13.3-1002.55,13.3-1503.39,0,500.98-7.62,1002.38-7.62,1503.39,0h0Z"/></svg>