<svg width="161" height="80" viewBox="0 0 161 80" fill="none" xmlns="http://www.w3.org/2000/svg">
<rect width="161" height="80" rx="5" fill="#1D3F47"/>
<path d="M21.7322 49.6963V31.6326H25.9157C28.9768 31.6326 30.5073 33.4 30.5073 36.9348C30.5073 38 30.3412 38.9052 30.0098 39.6496C29.6784 40.3941 29.0952 40.9941 28.2625 41.4511L31.0681 49.6963H28.3132L25.8896 41.9837H24.3337V49.6963H21.7322ZM24.3337 34.0681V39.7H25.8136C26.2724 39.7 26.6381 39.6363 26.9107 39.5096C27.1826 39.3829 27.3956 39.2015 27.5483 38.9644C27.6846 38.7281 27.7777 38.4363 27.829 38.0889C27.8804 37.7422 27.9058 37.3407 27.9058 36.8837C27.9058 36.4266 27.8804 36.0252 27.829 35.6785C27.7777 35.3318 27.6756 35.0318 27.5229 34.7778C27.1997 34.3044 26.5875 34.0674 25.6863 34.0674H24.3345L24.3337 34.0681Z" fill="#FBF1F2"/>
<path d="M35.2524 49.6963L39.3086 31.6326H41.4767L45.5328 49.6963H42.9312L42.1663 45.8148H38.6204L37.8555 49.6963H35.2539H35.2524ZM41.6807 43.3792L40.4057 36.834H40.3543L39.0792 43.3792H41.6815H41.6807Z" fill="#FBF1F2"/>
<path d="M50.7104 49.6963V31.6326H53.3127V49.6963H50.7104Z" fill="#FBF1F2"/>
<path d="M59.5618 49.6963V31.6326H62.0613L65.9893 42.5163H66.0407V31.6326H68.6423V49.6963H66.1934L62.214 38.8378H62.1633V49.6963H59.561H59.5618Z" fill="#FBF1F2"/>
<path d="M77.2392 49.6963V42.06L73.668 31.6326H76.423L78.5143 38.8126H78.5657L80.6571 31.6326H83.4121L79.8408 42.06V49.6963H77.2385H77.2392Z" fill="#FBF1F2"/>
<path d="M88.5393 49.6963V31.6326H92.3914C93.8877 31.6326 95.0227 32.0385 95.7966 32.8503C96.5704 33.6622 96.9569 34.8126 96.9569 36.3007V44.7489C96.9569 46.44 96.5443 47.6881 95.7198 48.4911C94.8946 49.2948 93.7089 49.6963 92.1612 49.6963H88.5393ZM91.1416 34.0681V47.2607H92.3407C93.0721 47.2607 93.5905 47.0792 93.8966 46.7155C94.2027 46.3518 94.3561 45.7815 94.3561 45.0029V36.3007C94.3561 35.5903 94.2116 35.0407 93.9227 34.6518C93.6329 34.2629 93.1064 34.0681 92.3407 34.0681H91.1416Z" fill="#FBF1F2"/>
<path d="M101.753 49.6963L105.809 31.6326H107.977L112.033 49.6963H109.431L108.666 45.8148H105.12L104.355 49.6963H101.753ZM108.181 43.3792L106.906 36.834H106.855L105.58 43.3792H108.182H108.181Z" fill="#FBF1F2"/>
<path d="M118.155 49.6963V42.06L114.584 31.6326H117.339L119.43 38.8126H119.481L121.572 31.6326H124.327L120.756 42.06V49.6963H118.155H118.155Z" fill="#FBF1F2"/>
<path d="M137.874 36.8333H135.272V36.2496C135.272 35.6577 135.132 35.1459 134.851 34.7148C134.57 34.2837 134.099 34.0681 133.435 34.0681C133.079 34.0681 132.789 34.1362 132.568 34.2711C132.347 34.4066 132.169 34.5755 132.033 34.7785C131.897 34.9985 131.804 35.2481 131.752 35.5266C131.701 35.8051 131.675 36.0977 131.675 36.4022C131.675 36.757 131.688 37.0533 131.713 37.2903C131.739 37.5274 131.803 37.7385 131.905 37.9244C132.007 38.1111 132.156 38.2711 132.351 38.4066C132.546 38.5422 132.814 38.6777 133.155 38.8125L135.144 39.5992C135.722 39.8192 136.19 40.077 136.547 40.3733C136.904 40.6696 137.185 41.0118 137.389 41.4007C137.576 41.8066 137.703 42.2674 137.772 42.7837C137.839 43.2999 137.874 43.8874 137.874 44.5466C137.874 45.3081 137.797 46.014 137.644 46.6651C137.492 47.3162 137.244 47.8703 136.905 48.3266C136.548 48.8007 136.079 49.1725 135.501 49.4429C134.923 49.7133 134.217 49.8488 133.384 49.8488C132.755 49.8488 132.168 49.7385 131.624 49.5192C131.08 49.2999 130.612 48.9948 130.221 48.6059C129.83 48.217 129.519 47.7644 129.29 47.2488C129.06 46.7333 128.946 46.1703 128.946 45.5614V44.5977H131.547V45.4096C131.547 45.8829 131.687 46.3103 131.968 46.6911C132.249 47.0718 132.72 47.2622 133.384 47.2622C133.826 47.2622 134.171 47.1985 134.417 47.0718C134.664 46.9451 134.855 46.7636 134.991 46.5266C135.128 46.2903 135.208 46.0066 135.233 45.677C135.259 45.3474 135.271 44.9792 135.271 44.5733C135.271 44.0999 135.254 43.7111 135.221 43.4066C135.186 43.1022 135.119 42.857 135.017 42.6711C134.897 42.4851 134.74 42.3333 134.544 42.214C134.349 42.0962 134.089 41.9688 133.766 41.8333L131.904 41.0725C130.782 40.6155 130.029 40.0111 129.647 39.2585C129.264 38.5059 129.072 37.5629 129.072 36.4296C129.072 35.7533 129.166 35.1103 129.353 34.5014C129.54 33.8925 129.821 33.3688 130.195 32.9288C130.552 32.4896 131.007 32.1385 131.559 31.8762C132.112 31.614 132.771 31.4829 133.536 31.4829C134.182 31.4829 134.773 31.6014 135.309 31.8377C135.844 32.0748 136.307 32.3874 136.699 32.7762C137.481 33.5881 137.872 34.5185 137.872 35.5666V36.8348L137.874 36.8333Z" fill="#FBF1F2"/>
<path d="M41.376 62.4399H43.2521C43.4562 62.4399 43.6528 62.4592 43.842 62.4985C44.0312 62.5496 44.2233 62.654 44.4177 62.8118C44.5808 62.9311 44.7134 63.1007 44.8147 63.3222C44.9212 63.5362 44.9741 63.7888 44.9741 64.0807C44.9741 64.474 44.8393 64.8325 44.5689 65.1562C44.2918 65.4962 43.8867 65.6718 43.3534 65.6807H42.1595V67.7555H41.376V62.4407V62.4399ZM42.1595 64.9229H43.3229C43.6148 64.9177 43.8338 64.8251 43.9813 64.6444C44.1213 64.4688 44.1913 64.2733 44.1913 64.0585C44.1913 63.8799 44.163 63.7303 44.1056 63.6081C44.0461 63.4985 43.9634 63.4118 43.8569 63.3481C43.6953 63.2429 43.5083 63.1933 43.2946 63.1977H42.1595V64.9229Z" fill="#FBF1F2"/>
<path d="M45.7593 63.9712H46.4989V66.2268C46.4989 66.4823 46.5689 66.6816 46.7081 66.8253C46.8452 66.969 47.021 67.0408 47.234 67.0408C47.447 67.0408 47.6213 66.969 47.7561 66.8253C47.8931 66.6816 47.9624 66.4823 47.9624 66.2268V63.9712H48.702V67.7549H47.9624V67.3505H47.9482C47.7047 67.6497 47.3866 67.7986 46.9941 67.7986C46.6888 67.7934 46.4132 67.6793 46.1674 67.4564C45.9 67.2379 45.7645 66.9156 45.7593 66.4882V63.9705V63.9712Z" fill="#FBF1F2"/>
<path d="M49.8987 66.5991C50.2003 66.9228 50.5891 67.0843 51.0665 67.0843C51.2803 67.0843 51.4546 67.0421 51.5901 66.9569C51.7257 66.8717 51.7927 66.7525 51.7927 66.5999C51.7927 66.4636 51.7525 66.3688 51.6721 66.3154C51.5894 66.2599 51.4784 66.2288 51.3414 66.2243L50.6867 66.1658C50.3761 66.1369 50.1236 66.0295 49.9292 65.8451C49.7304 65.6651 49.6283 65.414 49.6231 65.0902C49.6276 64.7014 49.7617 64.4095 50.0246 64.2154C50.28 64.0214 50.6048 63.9236 50.998 63.9236C51.1686 63.9236 51.3213 63.9347 51.4561 63.9562C51.5909 63.9806 51.7175 64.0147 51.8359 64.0584C52.0631 64.1532 52.2671 64.2806 52.4474 64.4406L51.9886 64.991C51.8463 64.8858 51.6959 64.7984 51.5365 64.7295C51.3801 64.668 51.1999 64.6377 50.9958 64.6377C50.7634 64.6377 50.601 64.6806 50.5087 64.7651C50.4111 64.8503 50.3627 64.9599 50.3627 65.0932C50.3575 65.1784 50.3947 65.2525 50.4729 65.3162C50.5444 65.3865 50.6696 65.4317 50.8498 65.451L51.4613 65.4984C51.8456 65.5273 52.1227 65.6465 52.294 65.8562C52.4526 66.0606 52.5323 66.3199 52.5323 66.634C52.5278 67.0014 52.3818 67.2851 52.0958 67.4843C51.8113 67.6888 51.4479 67.7932 51.0055 67.7984C50.4044 67.7984 49.863 67.5725 49.3826 67.1206L49.8995 66.5991H49.8987Z" fill="#FBF1F2"/>
<path d="M53.394 62.4399H54.1336V64.3718H54.1478C54.3913 64.0725 54.7108 63.9236 55.1056 63.9236C55.4109 63.9236 55.6895 64.034 55.9427 64.2555C56.193 64.4792 56.3248 64.8073 56.3367 65.2399V67.7555H55.5971V65.4999C55.5971 65.2348 55.5286 65.0325 55.3908 64.894C55.256 64.7525 55.0817 64.6822 54.8687 64.6822C54.6557 64.6822 54.4807 64.7525 54.3429 64.894C54.2029 65.0325 54.1336 65.2348 54.1336 65.4999V67.7555H53.394V62.4407V62.4399Z" fill="#FBF1F2"/>
<path d="M57.448 62.4399H58.1876V63.1977H57.448V62.4399ZM57.448 63.9711H58.1876V67.7548H57.448V63.9711Z" fill="#FBF1F2"/>
<path d="M59.2251 63.971H59.9647V64.3717H59.9788C60.2224 64.0725 60.5419 63.9236 60.9366 63.9236C61.242 63.9236 61.5205 64.034 61.7738 64.2554C62.024 64.4791 62.1559 64.8073 62.1678 65.2399V67.7554H61.4282V65.4999C61.4282 65.2347 61.3597 65.0325 61.2219 64.894C61.0871 64.7525 60.9128 64.6821 60.6998 64.6821C60.4868 64.6821 60.3118 64.7525 60.174 64.894C60.0339 65.0325 59.9647 65.2347 59.9647 65.4999V67.7554H59.2251V63.9717V63.971Z" fill="#FBF1F2"/>
<path d="M65.3278 67.3599C65.0843 67.6429 64.767 67.7888 64.3775 67.7984C64.1384 67.7932 63.9403 67.7414 63.7817 67.6414C63.6163 67.5466 63.4897 67.4443 63.4018 67.3347C63.305 67.211 63.235 67.0584 63.1925 66.8784C63.1478 66.7006 63.1255 66.3629 63.1255 65.8643C63.1255 65.3658 63.1478 65.0117 63.1925 64.8317C63.235 64.654 63.305 64.5043 63.4018 64.3829C63.4897 64.2643 63.6156 64.1584 63.7817 64.0636C63.9403 63.974 64.1384 63.9273 64.3775 63.9221C64.7439 63.9221 65.0612 64.0717 65.3278 64.3703V63.9695H66.0674V67.6621C66.0577 68.231 65.8983 68.6488 65.5885 68.9162C65.2764 69.191 64.9033 69.328 64.4684 69.328C63.9693 69.3184 63.5441 69.1073 63.1918 68.6947L63.7668 68.2258C63.8613 68.3162 63.9701 68.3932 64.093 68.4569C64.2181 68.528 64.3484 68.5658 64.4832 68.5703C64.7365 68.5703 64.9398 68.4984 65.0932 68.354C65.2444 68.2073 65.3226 68.0051 65.3271 67.7458V67.3577L65.3278 67.3599ZM63.8651 65.8666C63.8651 66.1569 63.8748 66.3569 63.8934 66.4666C63.9098 66.5814 63.9492 66.6762 64.0103 66.7518C64.0602 66.8199 64.1354 66.8821 64.2375 66.9384C64.3343 67.0066 64.4549 67.0406 64.5994 67.0406C64.7439 67.0406 64.8646 67.0066 64.9614 66.9384C65.0582 66.8821 65.132 66.8199 65.1819 66.7518C65.2437 66.6762 65.2846 66.5814 65.3062 66.4666C65.3204 66.3569 65.3278 66.1569 65.3278 65.8666C65.3278 65.5762 65.3204 65.3666 65.3062 65.2525C65.2846 65.1377 65.2437 65.0451 65.1819 64.9747C65.132 64.9066 65.059 64.8392 64.9614 64.7732C64.8646 64.7169 64.7439 64.6866 64.5994 64.6821C64.4549 64.6873 64.3343 64.7177 64.2375 64.7732C64.1354 64.8392 64.0602 64.9058 64.0103 64.9747C63.9485 65.0458 63.9098 65.1384 63.8934 65.2525C63.8748 65.3673 63.8651 65.5717 63.8651 65.8666Z" fill="#FBF1F2"/>
<path d="M68.9967 62.8193H69.7362V63.9712H70.2762V64.5542H69.7362V66.7601C69.731 66.9519 69.8189 67.046 69.9991 67.0408H70.2762V67.7549H69.8897C69.6297 67.7549 69.4167 67.6727 69.2521 67.5075C69.0823 67.3497 68.9967 67.1216 68.9967 66.823V64.5542H68.625V63.9712H68.9967V62.8193Z" fill="#FBF1F2"/>
<path d="M71.0381 62.4399H71.7777V64.3718H71.7918C72.0354 64.0725 72.3549 63.9236 72.7496 63.9236C73.055 63.9236 73.3335 64.034 73.5868 64.2555C73.837 64.4792 73.9688 64.8073 73.9808 65.2399V67.7555H73.2412V65.4999C73.2412 65.2348 73.1727 65.0325 73.0349 64.894C72.9001 64.7525 72.7258 64.6822 72.5128 64.6822C72.2998 64.6822 72.1247 64.7525 71.987 64.894C71.8469 65.0325 71.7777 65.2348 71.7777 65.4999V67.7555H71.0381V62.4407V62.4399Z" fill="#FBF1F2"/>
<path d="M75.6261 66.1505C75.6261 66.4542 75.711 66.6853 75.8815 66.8438C76.0402 67.0046 76.2487 67.0846 76.5064 67.0846C76.8073 67.0846 77.0762 66.9616 77.313 66.7164L77.8492 67.1868C77.4731 67.5994 77.0307 67.8038 76.522 67.7986C76.3276 67.7986 76.1385 67.7697 75.9545 67.7112C75.8621 67.6794 75.772 67.6372 75.6849 67.5838C75.5925 67.5379 75.5061 67.4809 75.4257 67.4127C75.2693 67.272 75.1427 67.0749 75.0459 66.8223C74.9394 66.5794 74.8865 66.2631 74.8865 65.8749C74.8865 65.4868 74.9327 65.1897 75.025 64.9416C75.1174 64.689 75.2358 64.4897 75.3795 64.3438C75.5262 64.1957 75.6908 64.089 75.8726 64.0231C76.0521 63.9572 76.2301 63.9246 76.4051 63.9246C76.8259 63.9297 77.1819 64.072 77.4731 64.3512C77.7688 64.6357 77.9193 65.0268 77.9237 65.5253V66.152H75.6253L75.6261 66.1505ZM77.1842 65.5238C77.1745 65.2283 77.0978 65.0046 76.9533 64.8535C76.811 64.709 76.6285 64.6372 76.4051 64.6372C76.1817 64.6372 75.9992 64.709 75.8569 64.8535C75.7169 65.0046 75.6402 65.2283 75.6253 65.5238H77.1834H77.1842Z" fill="#FBF1F2"/>
<path d="M84.18 66.2703C84.0661 66.7629 83.8494 67.1414 83.5298 67.4059C83.2006 67.6681 82.8111 67.7992 82.3613 67.7992C81.9546 67.7896 81.615 67.6873 81.3424 67.4933C81.0653 67.3059 80.8642 67.0896 80.7391 66.8444C80.7011 66.7644 80.6669 66.6873 80.6363 66.6148C80.608 66.5392 80.5842 66.4444 80.5656 66.3303C80.5298 66.1162 80.5127 65.7059 80.5127 65.0985C80.5127 64.491 80.5306 64.0681 80.5656 63.8592C80.6036 63.6503 80.6617 63.4814 80.7399 63.3525C80.865 63.1073 81.0661 62.8881 81.3431 62.6962C81.615 62.5022 81.9546 62.4022 82.362 62.397C82.8618 62.4022 83.2684 62.5533 83.5835 62.8518C83.8985 63.1525 84.0966 63.5251 84.18 63.9688H83.3481C83.2841 63.7548 83.1679 63.5718 82.9996 63.4207C82.8238 63.277 82.6108 63.2029 82.3598 63.1977C82.1751 63.2029 82.0164 63.2407 81.8831 63.311C81.7483 63.3844 81.6388 63.4755 81.5561 63.5851C81.4541 63.6999 81.3863 63.8473 81.3536 64.0273C81.3156 64.217 81.297 64.574 81.297 65.0977C81.297 65.6214 81.3156 65.9755 81.3536 66.1607C81.3871 66.3459 81.4541 66.4955 81.5561 66.6103C81.6396 66.7199 81.7483 66.8088 81.8831 66.877C82.0157 66.957 82.1751 66.9977 82.3598 66.9977C82.8007 66.9977 83.1306 66.7555 83.3489 66.271H84.18V66.2703Z" fill="#FBF1F2"/>
<path d="M84.6143 65.8591C84.6143 65.4599 84.6463 65.1532 84.7103 64.9391C84.7766 64.7295 84.8787 64.5532 85.0157 64.4095C85.1177 64.2836 85.2592 64.1717 85.4417 64.0725C85.622 63.9784 85.8521 63.9288 86.1344 63.9236C86.4256 63.9288 86.6609 63.9784 86.8412 64.0732C87.0184 64.1732 87.1562 64.2858 87.2531 64.4125C87.399 64.5562 87.5033 64.7317 87.5644 64.9414C87.6232 65.1554 87.653 65.4614 87.653 65.8599C87.653 66.2584 87.6232 66.5621 87.5644 66.771C87.5026 66.9799 87.399 67.1614 87.2523 67.314C87.2046 67.3695 87.1473 67.4243 87.078 67.4777C87.0162 67.5384 86.9373 67.591 86.8404 67.6347C86.6609 67.7391 86.4256 67.794 86.1344 67.7984C85.8528 67.7932 85.622 67.7391 85.4425 67.6347C85.26 67.5399 85.1185 67.4332 85.0164 67.314C84.8794 67.1606 84.7774 66.9799 84.7111 66.771C84.647 66.5621 84.615 66.2584 84.615 65.8599L84.6143 65.8591ZM86.9127 65.8665C86.9127 65.5962 86.9008 65.3984 86.8769 65.274C86.8531 65.1547 86.8047 65.0495 86.731 64.9591C86.6766 64.874 86.5961 64.8065 86.4889 64.7577C86.3869 64.7065 86.2684 64.6806 86.1329 64.6806C86.007 64.6806 85.8908 64.7065 85.7843 64.7577C85.6823 64.8065 85.5996 64.8732 85.5356 64.9584C85.4715 65.0488 85.4253 65.1532 85.397 65.2732C85.3687 65.3977 85.3546 65.5925 85.3546 65.8584C85.3546 66.1243 85.3687 66.3147 85.397 66.4362C85.4253 66.5606 85.4715 66.6703 85.5356 66.7651C85.5996 66.8384 85.6823 66.9028 85.7843 66.9591C85.8908 67.0125 86.007 67.0399 86.1329 67.0399C86.2677 67.0399 86.3869 67.0132 86.4889 66.9591C86.5954 66.9028 86.6766 66.8384 86.731 66.7651C86.8047 66.6703 86.8531 66.5606 86.8769 66.4362C86.9008 66.314 86.9127 66.1243 86.9127 65.8658V65.8665Z" fill="#FBF1F2"/>
<path d="M88.5208 63.9711H89.2618V64.3719H89.276C89.5277 64.0726 89.8591 63.9237 90.2695 63.9237C90.5332 63.9289 90.7462 63.9733 90.9071 64.0585C91.0657 64.1533 91.2109 64.2733 91.3435 64.4193C91.6414 64.0837 92.0414 63.9185 92.5419 63.9237C92.8569 63.9237 93.1452 64.0341 93.4066 64.2556C93.6658 64.4793 93.7998 64.8074 93.8095 65.24V67.7556H93.0692V65.5C93.0692 65.2348 92.9984 65.0326 92.8569 64.8941C92.7154 64.7526 92.5322 64.6822 92.3088 64.6822C92.0853 64.6822 91.9014 64.7526 91.7569 64.8941C91.6102 65.0326 91.5372 65.2348 91.5372 65.5V67.7556H90.7976V65.5C90.7976 65.2348 90.7268 65.0326 90.5853 64.8941C90.4408 64.7526 90.2569 64.6822 90.0334 64.6822C89.81 64.6822 89.6268 64.7526 89.4853 64.8941C89.3363 65.0326 89.2618 65.2348 89.2618 65.5V67.7556H88.5215V63.9719L88.5208 63.9711Z" fill="#FBF1F2"/>
<path d="M95.0636 64.554H94.6897V63.9711H95.0636V63.4718C95.0636 63.1118 95.1604 62.8473 95.3548 62.677C95.544 62.5192 95.7816 62.4399 96.0683 62.4399H96.5472V63.154H96.1242C95.9007 63.1466 95.7942 63.2518 95.8039 63.4688V63.9703H96.5472V64.5533H95.8039V67.754H95.0643V64.5533L95.0636 64.554Z" fill="#FBF1F2"/>
<path d="M96.8481 65.8591C96.8481 65.4599 96.8802 65.1532 96.9442 64.9391C97.0105 64.7295 97.1125 64.5532 97.2496 64.4095C97.3516 64.2836 97.4931 64.1717 97.6756 64.0725C97.8558 63.9784 98.086 63.9288 98.3683 63.9236C98.6595 63.9288 98.8948 63.9784 99.0751 64.0732C99.2523 64.1732 99.3901 64.2858 99.4869 64.4125C99.6329 64.5562 99.7372 64.7317 99.7983 64.9414C99.8571 65.1554 99.8869 65.4614 99.8869 65.8599C99.8869 66.2584 99.8571 66.5621 99.7983 66.771C99.7364 66.9799 99.6329 67.1614 99.4862 67.314C99.4385 67.3695 99.3812 67.4243 99.3119 67.4777C99.2501 67.5384 99.1712 67.591 99.0743 67.6347C98.8948 67.7391 98.6595 67.794 98.3683 67.7984C98.0867 67.7932 97.8558 67.7391 97.6764 67.6347C97.4939 67.5399 97.3524 67.4332 97.2503 67.314C97.1133 67.1606 97.0113 66.9799 96.945 66.771C96.8809 66.5621 96.8489 66.2584 96.8489 65.8599L96.8481 65.8591ZM99.1466 65.8665C99.1466 65.5962 99.1347 65.3984 99.1108 65.274C99.087 65.1547 99.0386 65.0495 98.9648 64.9591C98.9105 64.874 98.83 64.8065 98.7228 64.7577C98.6208 64.7065 98.5023 64.6806 98.3668 64.6806C98.2409 64.6806 98.1247 64.7065 98.0182 64.7577C97.9162 64.8065 97.8335 64.8732 97.7695 64.9584C97.7054 65.0488 97.6592 65.1532 97.6309 65.2732C97.6026 65.3977 97.5885 65.5925 97.5885 65.8584C97.5885 66.1243 97.6026 66.3147 97.6309 66.4362C97.6592 66.5606 97.7054 66.6703 97.7695 66.7651C97.8335 66.8384 97.9162 66.9028 98.0182 66.9591C98.1247 67.0125 98.2409 67.0399 98.3668 67.0399C98.5016 67.0399 98.6208 67.0132 98.7228 66.9591C98.8293 66.9028 98.9105 66.8384 98.9648 66.7651C99.0386 66.6703 99.087 66.5606 99.1108 66.4362C99.1347 66.314 99.1466 66.1243 99.1466 65.8658V65.8665Z" fill="#FBF1F2"/>
<path d="M100.784 63.971H101.524V64.3717H101.54C101.783 64.0725 102.103 63.9236 102.499 63.9236C102.795 63.9288 103.053 64.0251 103.273 64.214L102.733 64.8717C102.576 64.7451 102.414 64.6814 102.246 64.6814C102.057 64.6814 101.894 64.7443 101.759 64.871C101.607 64.9954 101.528 65.1962 101.524 65.4732V67.7547H100.784V63.971Z" fill="#FBF1F2"/>
<path d="M103.75 62.8193H104.49V63.9712H105.03V64.5542H104.49V66.7601C104.484 66.9519 104.572 67.046 104.753 67.0408H105.03V67.7549H104.643C104.383 67.7549 104.17 67.6727 104.005 67.5075C103.835 67.3497 103.749 67.1216 103.749 66.823V64.5542H103.378V63.9712H103.749V62.8193H103.75Z" fill="#FBF1F2"/>
<path d="M107.342 67.0873L109.688 63.154H107.361V62.4399H110.647V63.0459L108.217 66.997H110.647V67.7548H107.342V67.0873Z" fill="#FBF1F2"/>
<path d="M111.304 65.8591C111.304 65.4599 111.336 65.1532 111.4 64.9391C111.466 64.7295 111.568 64.5532 111.705 64.4095C111.807 64.2836 111.949 64.1717 112.131 64.0725C112.311 63.9784 112.542 63.9288 112.824 63.9236C113.115 63.9288 113.35 63.9784 113.531 64.0732C113.708 64.1732 113.846 64.2858 113.943 64.4125C114.088 64.5562 114.193 64.7317 114.254 64.9414C114.313 65.1554 114.342 65.4614 114.342 65.8599C114.342 66.2584 114.313 66.5621 114.254 66.771C114.192 66.9799 114.088 67.1614 113.942 67.314C113.894 67.3695 113.837 67.4243 113.767 67.4777C113.706 67.5384 113.627 67.591 113.53 67.6347C113.35 67.7391 113.115 67.794 112.824 67.7984C112.542 67.7932 112.311 67.7391 112.132 67.6347C111.949 67.5399 111.808 67.4332 111.706 67.314C111.569 67.1606 111.467 66.9799 111.401 66.771C111.336 66.5621 111.304 66.2584 111.304 65.8599L111.304 65.8591ZM113.602 65.8665C113.602 65.5962 113.59 65.3984 113.566 65.274C113.543 65.1547 113.494 65.0495 113.42 64.9591C113.366 64.874 113.286 64.8065 113.178 64.7577C113.076 64.7065 112.958 64.6806 112.822 64.6806C112.696 64.6806 112.58 64.7065 112.474 64.7577C112.372 64.8065 112.289 64.8732 112.225 64.9584C112.161 65.0488 112.115 65.1532 112.086 65.2732C112.058 65.3977 112.044 65.5925 112.044 65.8584C112.044 66.1243 112.058 66.3147 112.086 66.4362C112.115 66.5606 112.161 66.6703 112.225 66.7651C112.289 66.8384 112.372 66.9028 112.474 66.9591C112.58 67.0125 112.696 67.0399 112.822 67.0399C112.957 67.0399 113.076 67.0132 113.178 66.9591C113.285 66.9028 113.366 66.8384 113.42 66.7651C113.494 66.6703 113.543 66.5606 113.566 66.4362C113.59 66.314 113.602 66.1243 113.602 65.8658V65.8665Z" fill="#FBF1F2"/>
<path d="M115.24 63.971H115.98V64.3717H115.994C116.237 64.0725 116.557 63.9236 116.952 63.9236C117.257 63.9236 117.535 64.034 117.789 64.2554C118.039 64.4791 118.171 64.8073 118.183 65.2399V67.7554H117.443V65.4999C117.443 65.2347 117.375 65.0325 117.237 64.894C117.102 64.7525 116.928 64.6821 116.715 64.6821C116.502 64.6821 116.327 64.7525 116.189 64.894C116.049 65.0325 115.98 65.2347 115.98 65.4999V67.7554H115.24V63.9717V63.971Z" fill="#FBF1F2"/>
<path d="M119.828 66.1505C119.828 66.4542 119.913 66.6853 120.083 66.8438C120.242 67.0046 120.451 67.0846 120.708 67.0846C121.009 67.0846 121.278 66.9616 121.515 66.7164L122.051 67.1868C121.675 67.5994 121.233 67.8038 120.724 67.7986C120.53 67.7986 120.34 67.7697 120.156 67.7112C120.064 67.6794 119.974 67.6372 119.887 67.5838C119.794 67.5379 119.708 67.4809 119.628 67.4127C119.471 67.272 119.345 67.0749 119.248 66.8223C119.141 66.5794 119.088 66.2631 119.088 65.8749C119.088 65.4868 119.135 65.1897 119.227 64.9416C119.319 64.689 119.438 64.4897 119.581 64.3438C119.728 64.1957 119.893 64.089 120.074 64.0231C120.254 63.9572 120.432 63.9246 120.607 63.9246C121.028 63.9297 121.384 64.072 121.675 64.3512C121.971 64.6357 122.121 65.0268 122.126 65.5253V66.152H119.827L119.828 66.1505ZM121.386 65.5238C121.376 65.2283 121.3 65.0046 121.155 64.8535C121.013 64.709 120.83 64.6372 120.607 64.6372C120.384 64.6372 120.201 64.709 120.059 64.8535C119.919 65.0046 119.841 65.2283 119.827 65.5238H121.385H121.386Z" fill="#FBF1F2"/>
<path fill-rule="evenodd" clip-rule="evenodd" d="M40.3691 29.2406C42.2281 28.9992 45.0658 28.3977 45.2475 28.2473C57.1977 18.4755 43.8466 33.6206 56.9713 22.9362C62.5714 18.3784 60.5686 20.2999 64.9681 24.0451C66.5232 25.3717 68.2057 21.8777 66.6059 19.0843C66.559 19.0036 69.8964 15.0317 69.9441 14.9999C69.9038 14.6962 71.2407 21.5569 71.1715 16.8058C71.1715 16.7717 72.1352 13.4673 72.7475 13.428C74.0709 13.3436 72.1889 12.1651 74.4635 10.751C75.0109 10.4117 75.7661 8.68805 75.8994 8.35101C75.9218 8.38508 79.3783 11.4666 79.9034 12.0999C80.4739 12.7858 83.5052 13.4866 83.3928 15.8955C83.3868 16.0288 84.5092 18.434 84.4377 19.714C84.3774 20.8095 87.431 22.1155 88.5497 24.8695C89.9834 28.3992 88.1624 21.5043 89.6289 23.7266C90.8221 25.5384 91.6637 24.8829 93.6649 27.8236C93.8861 28.1458 94.438 28.9066 94.7844 29.2399H95.0741C95.051 29.0784 94.9527 28.7806 94.7479 28.2992C94.4157 27.5177 94.0582 24.6199 93.624 24.3532C92.8777 23.8977 90.002 22.0392 90.0117 21.4399C90.0586 18.5658 93.7714 23.4895 92.7905 21.4606C90.9107 17.5732 91.7352 20.0984 90.6895 19.5273C91.1654 18.9295 90.8429 18.5436 90.9755 18.1799C91.6942 17.9421 91.8171 18.2866 90.1517 16.7095C88.3806 15.0347 90.6865 14.2666 89.7235 12.1547C89.3116 11.254 90.8206 11.3399 91.8394 12.1621C92.3623 12.5858 96.2076 14.268 98.7273 15.3021C100.726 17.6236 103.089 19.1725 105.817 19.9503C103.736 18.7903 102.029 17.4977 100.696 16.0703C100.791 16.1021 100.86 16.1206 100.898 16.128C103.849 16.6095 103.116 17.1473 104.871 18.1236C105.998 18.2755 108.345 21.0651 111.553 21.8725C113.249 22.3014 115.002 25.3288 116.831 26.6273C120.297 29.0836 117.932 27.8243 121.721 28.9243C122.094 29.0332 122.41 29.1377 122.689 29.2392H124.019C121.968 28.5406 120.686 26.7925 119.222 26.288C116.338 25.2992 114.871 23.1614 113.006 21.0651C111.036 18.8503 108.241 19.0903 107.219 17.8599C106.516 17.0132 102.412 14.8414 101.286 14.4747C101.258 14.4488 101.185 14.4332 101.138 14.4014C100.985 14.2984 100.91 14.2984 100.799 14.2369C100.542 14.091 100.465 14.2406 100.187 14.2347C100.083 14.2347 99.7313 14.014 99.7201 13.9836C99.6896 13.9666 99.5533 13.9103 99.5339 13.8955C99.3589 13.7495 98.8993 13.4251 98.6826 13.4029C98.5284 13.388 98.2558 13.2043 98.1434 13.1688C97.844 13.071 97.7546 12.848 97.3263 12.7755C96.9912 12.7192 96.5599 12.6088 96.2672 12.4325C96.271 12.3969 92.7064 11.4058 92.5127 11.3555C92.4777 11.348 92.3958 11.314 92.2908 11.2673C91.5445 10.4332 90.3335 10.2629 89.3943 9.73842C88.9616 9.49842 87.2485 10.4073 86.6438 10.7969C86.3265 11.0029 86.1567 10.9992 85.9489 11.1732C85.8215 11.2799 84.9121 11.6792 84.7654 11.5517C84.6373 11.4392 84.7215 11.4784 84.5926 11.451C84.0616 11.3347 84.1763 11.6362 83.9193 11.6717C83.4613 11.734 83.6564 11.8014 83.4233 11.8814C83.0382 12.0184 83.2766 12.114 82.8722 12.1066C82.5616 11.6421 81.682 11.5125 81.2701 10.8999C81.1792 10.7629 80.4091 10.0792 80.1626 10.074C79.852 10.0703 78.9672 9.1636 78.4712 9.00064C78.4667 8.99842 77.8888 8.59397 77.8575 8.56805C77.853 8.56434 77.4173 8.37323 77.3011 8.26805C77.1447 8.12582 76.5831 7.89693 76.1467 7.77916C75.9553 7.66879 75.7631 7.57471 75.5814 7.53175C74.9275 7.37249 74.8589 6.99768 74.3875 7.2036C73.4379 7.61397 73.6494 7.4399 72.6313 8.10138C72.5352 8.08805 72.0042 8.19323 71.952 8.2436C71.6802 8.50434 71.4798 8.80953 71.1767 8.8036C70.6322 8.79397 70.8058 8.91249 70.1883 9.23249C69.6663 9.50805 69.5627 9.70805 68.9915 9.94434C68.7382 10.051 68.1394 10.611 67.8862 10.5851C67.7343 10.6769 67.481 10.4688 67.1824 10.9258C67.128 11.008 66.7921 10.9992 66.4793 11.3888C66.4666 11.4058 66.1464 11.5614 66.0585 11.651C65.5192 12.1999 65.8097 11.8629 65.5662 11.9992C65.2236 12.194 64.8609 12.4073 64.4959 12.5503C63.772 12.8273 63.8025 13.0355 63.4539 13.2399C62.9922 13.5118 62.9624 13.671 62.371 13.8747C62.0522 13.9873 61.0051 14.8058 60.6595 14.868C60.3266 14.9243 59.1021 16.0673 58.621 16.2747C58.583 16.2932 58.4676 16.3799 58.4348 16.4095C57.7272 16.494 57.4874 16.9755 56.8812 17.2636C56.6041 17.3947 56.543 17.5651 56.2012 17.6592C55.7156 17.7888 55.0125 18.5021 54.8106 18.5695C54.4017 18.7103 53.7389 19.3266 53.3628 19.291C53.3568 19.2888 52.2322 19.9184 52.2009 19.9636C52.1696 20.0066 52.1301 20.0214 52.1316 20.0629C51.7175 20.3851 51.9856 19.8192 51.1924 20.754C50.6845 21.3517 49.3677 21.7525 48.5298 22.6777C48.3436 22.8836 48.2639 22.3873 47.3419 23.7547C46.5226 24.9666 45.7815 24.8117 44.7485 25.6317C43.9754 26.2443 43.457 25.9799 42.2914 26.9058C41.493 27.5392 40.6127 28.0821 39.7316 28.5488C39.389 28.7325 39.1112 29.1258 38.7678 29.2384H40.3691V29.2406Z" fill="#FBF1F2"/>
<path fill-rule="evenodd" clip-rule="evenodd" d="M135.719 55.3252C98.4211 56.3104 61.0497 56.3104 23.7476 55.3252C61.0601 54.7607 98.404 54.7607 135.719 55.3252Z" fill="#FBF1F2"/>
<path fill-rule="evenodd" clip-rule="evenodd" d="M130.659 68.0614C128.487 66.7059 126.75 64.9244 125.453 62.7236C127.439 64.2607 129.174 66.0407 130.659 68.0614Z" fill="#FBF1F2"/>
<path fill-rule="evenodd" clip-rule="evenodd" d="M124.905 68.0614C126.388 66.0407 128.124 64.2607 130.11 62.7236C128.814 64.9236 127.076 66.7051 124.905 68.0614Z" fill="#FBF1F2"/>
<path fill-rule="evenodd" clip-rule="evenodd" d="M38.7007 68.0614C36.5289 66.7059 34.792 64.9244 33.4954 62.7236C35.481 64.2607 37.2163 66.0407 38.7007 68.0614Z" fill="#FBF1F2"/>
<path fill-rule="evenodd" clip-rule="evenodd" d="M32.9465 68.0614C34.4302 66.0407 36.1663 64.2607 38.1519 62.7236C36.8559 64.9236 35.1183 66.7051 32.9465 68.0614Z" fill="#FBF1F2"/>
</svg>
