<svg width="226" height="115" viewBox="0 0 226 115" fill="none" xmlns="http://www.w3.org/2000/svg">
<rect x="0.5" y="0.5" width="225" height="112" rx="4.5" fill="#1D3F47" stroke="black"/>
<path d="M29.2529 71.4384V45.4719H35.2502C39.6385 45.4719 41.8327 48.0125 41.8327 53.0938C41.8327 54.625 41.5946 55.9262 41.1194 56.9963C40.6443 58.0665 39.8083 58.929 38.6146 59.586L42.6367 71.4384H38.6872L35.2129 60.3516H32.9824V71.4384H29.2529ZM32.9824 48.973V57.0687H35.104C35.7617 57.0687 36.2859 56.9772 36.6767 56.7951C37.0664 56.613 37.3718 56.3521 37.5907 56.0114C37.7861 55.6717 37.9195 55.2522 37.9932 54.7528C38.0669 54.2544 38.1032 53.6773 38.1032 53.0203C38.1032 52.3633 38.0669 51.7862 37.9932 51.2879C37.9195 50.7895 37.7732 50.3583 37.5544 49.9931C37.091 49.3126 36.2133 48.9719 34.9214 48.9719H32.9835L32.9824 48.973Z" fill="#FBF1F2"/>
<path d="M48.6348 71.4384L54.4495 45.4719H57.5576L63.3723 71.4384H59.6428L58.5463 65.8588H53.4629L52.3664 71.4384H48.6369H48.6348ZM57.8502 62.3577L56.0222 52.949H55.9486L54.1206 62.3577H57.8512H57.8502Z" fill="#FBF1F2"/>
<path d="M70.7949 71.4384V45.4719H74.5255V71.4384H70.7949Z" fill="#FBF1F2"/>
<path d="M83.4835 71.4384V45.4719H87.0667L92.6978 61.1172H92.7715V45.4719H96.501V71.4384H92.9904L87.2856 55.8293H87.213V71.4384H83.4824H83.4835Z" fill="#FBF1F2"/>
<path d="M108.826 71.4384V60.4612L103.706 45.4719H107.656L110.654 55.7931H110.727L113.725 45.4719H117.675L112.555 60.4612V71.4384H108.825H108.826Z" fill="#FBF1F2"/>
<path d="M125.024 71.4384V45.4719H130.547C132.692 45.4719 134.319 46.0554 135.428 47.2224C136.538 48.3894 137.092 50.0431 137.092 52.1823V64.3265C137.092 66.7575 136.5 68.5517 135.318 69.706C134.135 70.8613 132.435 71.4384 130.217 71.4384H125.024ZM128.755 48.973V67.9373H130.474C131.522 67.9373 132.266 67.6764 132.704 67.1536C133.143 66.6308 133.363 65.8109 133.363 64.6918V52.1823C133.363 51.1612 133.156 50.3711 132.742 49.812C132.326 49.253 131.572 48.973 130.474 48.973H128.755Z" fill="#FBF1F2"/>
<path d="M143.967 71.4384L149.782 45.4719H152.89L158.704 71.4384H154.974L153.877 65.8588H148.794L147.697 71.4384H143.967ZM153.182 62.3577L151.354 52.949H151.282L149.454 62.3577H153.183H153.182Z" fill="#FBF1F2"/>
<path d="M167.481 71.4384V60.4612L162.361 45.4719H166.311L169.309 55.7931H169.382L172.38 45.4719H176.329L171.209 60.4612V71.4384H167.48H167.481Z" fill="#FBF1F2"/>
<path d="M195.749 52.9479H192.019V52.1088C192.019 51.2581 191.819 50.5223 191.416 49.9025C191.014 49.2828 190.338 48.973 189.386 48.973C188.875 48.973 188.46 49.0709 188.144 49.2647C187.826 49.4596 187.57 49.7024 187.376 49.9941C187.18 50.3104 187.047 50.6692 186.973 51.0696C186.9 51.4699 186.863 51.8906 186.863 52.3282C186.863 52.8382 186.881 53.2642 186.918 53.6049C186.954 53.9456 187.046 54.2491 187.192 54.5164C187.338 54.7847 187.552 55.0147 187.832 55.2096C188.112 55.4044 188.496 55.5993 188.984 55.7931L191.836 56.9239C192.664 57.2402 193.335 57.6107 193.847 58.0367C194.359 58.4626 194.761 58.9545 195.054 59.5136C195.322 60.0971 195.504 60.7594 195.603 61.5016C195.7 62.2437 195.749 63.0881 195.749 64.0358C195.749 65.1305 195.639 66.1452 195.42 67.0812C195.201 68.0172 194.847 68.8137 194.36 69.4696C193.848 70.1511 193.177 70.6856 192.348 71.0743C191.519 71.4629 190.507 71.6578 189.313 71.6578C188.41 71.6578 187.569 71.4991 186.79 71.1839C186.009 70.8687 185.339 70.43 184.778 69.871C184.218 69.312 183.772 68.6614 183.443 67.9203C183.115 67.1792 182.95 66.3699 182.95 65.4946V64.1093H186.68V65.2763C186.68 65.9568 186.88 66.5712 187.283 67.1185C187.685 67.6658 188.361 67.9394 189.313 67.9394C189.946 67.9394 190.44 67.8479 190.794 67.6658C191.147 67.4837 191.421 67.2228 191.617 66.8821C191.812 66.5424 191.927 66.1346 191.964 65.6607C192 65.1869 192.018 64.6577 192.018 64.0742C192.018 63.3937 191.994 62.8347 191.946 62.3971C191.897 61.9594 191.799 61.607 191.653 61.3397C191.482 61.0724 191.257 60.8542 190.976 60.6827C190.695 60.5134 190.324 60.3303 189.86 60.1354L187.191 59.0418C185.582 58.3849 184.504 57.516 183.955 56.4341C183.406 55.3523 183.132 53.9968 183.132 52.3676C183.132 51.3954 183.265 50.4712 183.534 49.5959C183.802 48.7206 184.205 47.9678 184.741 47.3353C185.252 46.7038 185.905 46.1991 186.697 45.8222C187.489 45.4452 188.434 45.2568 189.53 45.2568C190.456 45.2568 191.304 45.4271 192.072 45.7668C192.839 46.1075 193.503 46.5569 194.065 47.1159C195.186 48.283 195.747 49.6204 195.747 51.1271V52.95L195.749 52.9479Z" fill="#FBF1F2"/>
<path d="M57.4131 89.7575H60.1026C60.3952 89.7575 60.6771 89.7852 60.9483 89.8416C61.2195 89.9151 61.4949 90.0652 61.7736 90.292C62.0074 90.4635 62.1975 90.7073 62.3427 91.0257C62.4954 91.3334 62.5712 91.6965 62.5712 92.1161C62.5712 92.6815 62.3779 93.1969 61.9904 93.6622C61.5932 94.1509 61.0123 94.4033 60.2479 94.4161H58.5363V97.3986H57.4131V89.7586V89.7575ZM58.5363 93.3268H60.2041C60.6226 93.3193 60.9365 93.1862 61.1479 92.9264C61.3487 92.674 61.449 92.3929 61.449 92.0841C61.449 91.8275 61.4085 91.6124 61.3262 91.4367C61.2408 91.2791 61.1223 91.1545 60.9696 91.063C60.7379 90.9118 60.4699 90.8404 60.1635 90.8468H58.5363V93.3268Z" fill="#FBF1F2"/>
<path d="M63.6963 91.9585H64.7565V95.2008C64.7565 95.5682 64.8569 95.8546 65.0566 96.0612C65.253 96.2678 65.505 96.3711 65.8104 96.3711C66.1157 96.3711 66.3656 96.2678 66.5588 96.0612C66.7553 95.8546 66.8546 95.5682 66.8546 95.2008V91.9585H67.9148V97.3975H66.8546V96.8162H66.8343C66.4851 97.2463 66.0292 97.4604 65.4666 97.4604C65.0288 97.4529 64.6337 97.2889 64.2814 96.9684C63.8981 96.6543 63.7038 96.1911 63.6963 95.5767V91.9574V91.9585Z" fill="#FBF1F2"/>
<path d="M69.6315 95.7364C70.0639 96.2018 70.6213 96.4339 71.3057 96.4339C71.6121 96.4339 71.862 96.3732 72.0563 96.2507C72.2506 96.1283 72.3467 95.9568 72.3467 95.7375C72.3467 95.5416 72.289 95.4053 72.1737 95.3286C72.0552 95.2487 71.8961 95.204 71.6997 95.1976L70.7612 95.1135C70.3159 95.072 69.954 94.9176 69.6753 94.6524C69.3902 94.3937 69.2439 94.0327 69.2365 93.5674C69.2429 93.0084 69.4351 92.5888 69.812 92.3098C70.1782 92.0309 70.6437 91.8903 71.2075 91.8903C71.452 91.8903 71.6708 91.9063 71.8641 91.9372C72.0574 91.9723 72.2389 92.0213 72.4086 92.0841C72.7343 92.2204 73.0268 92.4036 73.2852 92.6336L72.6275 93.4247C72.4236 93.2735 72.2079 93.1479 71.9794 93.0488C71.7552 92.9605 71.4968 92.9168 71.2043 92.9168C70.8711 92.9168 70.6384 92.9786 70.506 93.0999C70.3661 93.2224 70.2967 93.38 70.2967 93.5717C70.2892 93.6941 70.3426 93.8006 70.4547 93.8922C70.5572 93.9933 70.7366 94.0583 70.995 94.086L71.8716 94.1541C72.4225 94.1956 72.8197 94.3671 73.0653 94.6684C73.2927 94.9623 73.4069 95.335 73.4069 95.7865C73.4005 96.3146 73.1913 96.7224 72.7813 97.0089C72.3734 97.3028 71.8524 97.4529 71.2181 97.4604C70.3565 97.4604 69.5803 97.1356 68.8916 96.4861L69.6326 95.7364H69.6315Z" fill="#FBF1F2"/>
<path d="M74.6416 89.7575H75.7018V92.5345H75.7221C76.0713 92.1044 76.5293 91.8903 77.0952 91.8903C77.533 91.8903 77.9323 92.049 78.2953 92.3674C78.6541 92.6889 78.843 93.1607 78.8601 93.7825V97.3986H77.7999V94.1563C77.7999 93.775 77.7017 93.4844 77.5041 93.2852C77.3109 93.0819 77.061 92.9807 76.7557 92.9807C76.4503 92.9807 76.1994 93.0819 76.0019 93.2852C75.8011 93.4844 75.7018 93.775 75.7018 94.1563V97.3986H74.6416V89.7586V89.7575Z" fill="#FBF1F2"/>
<path d="M80.4531 89.7575H81.5134V90.8468H80.4531V89.7575ZM80.4531 91.9585H81.5134V97.3976H80.4531V91.9585Z" fill="#FBF1F2"/>
<path d="M83.001 91.9585H84.0612V92.5345H84.0815C84.4306 92.1043 84.8887 91.8903 85.4546 91.8903C85.8923 91.8903 86.2917 92.049 86.6547 92.3674C87.0134 92.6889 87.2024 93.1606 87.2195 93.7825V97.3986H86.1593V94.1562C86.1593 93.775 86.061 93.4843 85.8635 93.2852C85.6702 93.0818 85.4204 92.9807 85.115 92.9807C84.8097 92.9807 84.5588 93.0818 84.3612 93.2852C84.1605 93.4843 84.0612 93.775 84.0612 94.1562V97.3986H83.001V91.9595V91.9585Z" fill="#FBF1F2"/>
<path d="M91.75 96.83C91.4008 97.2368 90.946 97.4465 90.3876 97.4604C90.0449 97.4529 89.7609 97.3784 89.5334 97.2346C89.2964 97.0983 89.1149 96.9514 88.9889 96.7938C88.8501 96.616 88.7497 96.3966 88.6889 96.1379C88.6248 95.8823 88.5928 95.3968 88.5928 94.6801C88.5928 93.9635 88.6248 93.4545 88.6889 93.1958C88.7497 92.9402 88.8501 92.7251 88.9889 92.5505C89.1149 92.3801 89.2953 92.2279 89.5334 92.0916C89.7609 91.9627 90.0449 91.8956 90.3876 91.8882C90.9129 91.8882 91.3677 92.1033 91.75 92.5324V91.9563H92.8102V97.2644C92.7963 98.0822 92.5678 98.6828 92.1237 99.0672C91.6763 99.4622 91.1414 99.6592 90.5179 99.6592C89.8025 99.6454 89.1928 99.3419 88.6878 98.7488L89.5121 98.0748C89.6477 98.2047 89.8036 98.3154 89.9797 98.407C90.1591 98.5092 90.346 98.5635 90.5392 98.5699C90.9022 98.5699 91.1937 98.4666 91.4137 98.259C91.6304 98.0481 91.7425 97.7575 91.7489 97.3848V96.8268L91.75 96.83ZM89.653 94.6833C89.653 95.1007 89.6669 95.3882 89.6936 95.5458C89.7171 95.7109 89.7737 95.8472 89.8612 95.9558C89.9327 96.0537 90.0406 96.1432 90.1869 96.2241C90.3257 96.3221 90.4986 96.3711 90.7058 96.3711C90.9129 96.3711 91.0859 96.3221 91.2247 96.2241C91.3635 96.1432 91.4692 96.0537 91.5407 95.9558C91.6293 95.8472 91.6881 95.7109 91.719 95.5458C91.7393 95.3882 91.75 95.1007 91.75 94.6833C91.75 94.2659 91.7393 93.9646 91.719 93.8006C91.6881 93.6355 91.6293 93.5024 91.5407 93.4013C91.4692 93.3033 91.3645 93.2064 91.2247 93.1117C91.0859 93.0307 90.9129 92.9871 90.7058 92.9807C90.4986 92.9881 90.3257 93.0318 90.1869 93.1117C90.0406 93.2064 89.9327 93.3023 89.8612 93.4013C89.7726 93.5035 89.7171 93.6366 89.6936 93.8006C89.6669 93.9656 89.653 94.2595 89.653 94.6833Z" fill="#FBF1F2"/>
<path d="M97.0093 90.3027H98.0696V91.9585H98.8437V92.7965H98.0696V95.9675C98.0621 96.2433 98.1881 96.3785 98.4465 96.3711H98.8437V97.3975H98.2895C97.9169 97.3975 97.6115 97.2793 97.3756 97.0419C97.1321 96.8151 97.0093 96.4871 97.0093 96.058V92.7965H96.4766V91.9585H97.0093V90.3027Z" fill="#FBF1F2"/>
<path d="M99.9355 89.7575H100.996V92.5345H101.016C101.365 92.1044 101.823 91.8903 102.389 91.8903C102.827 91.8903 103.226 92.049 103.589 92.3674C103.948 92.6889 104.137 93.1607 104.154 93.7825V97.3986H103.094V94.1563C103.094 93.775 102.996 93.4844 102.798 93.2852C102.605 93.0819 102.355 92.9807 102.05 92.9807C101.744 92.9807 101.493 93.0819 101.296 93.2852C101.095 93.4844 100.996 93.775 100.996 94.1563V97.3986H99.9355V89.7586V89.7575Z" fill="#FBF1F2"/>
<path d="M106.513 95.0912C106.513 95.5277 106.635 95.86 106.88 96.0878C107.107 96.3189 107.406 96.4339 107.775 96.4339C108.207 96.4339 108.592 96.2571 108.932 95.9047L109.7 96.5808C109.161 97.1739 108.527 97.4678 107.798 97.4604C107.519 97.4604 107.248 97.4188 106.984 97.3347C106.852 97.2889 106.723 97.2282 106.598 97.1516C106.465 97.0856 106.341 97.0036 106.226 96.9056C106.002 96.7033 105.82 96.42 105.682 96.0569C105.529 95.7077 105.453 95.253 105.453 94.695C105.453 94.1371 105.519 93.7101 105.652 93.3534C105.784 92.9903 105.954 92.7038 106.16 92.4941C106.37 92.2811 106.606 92.1278 106.867 92.033C107.124 91.9382 107.379 91.8914 107.63 91.8914C108.233 91.8988 108.744 92.1033 109.161 92.5047C109.585 92.9136 109.801 93.4758 109.807 94.1925V95.0933H106.512L106.513 95.0912ZM108.747 94.1903C108.733 93.7655 108.623 93.4439 108.416 93.2267C108.212 93.019 107.95 92.9157 107.63 92.9157C107.31 92.9157 107.048 93.019 106.844 93.2267C106.644 93.4439 106.534 93.7655 106.512 94.1903H108.746H108.747Z" fill="#FBF1F2"/>
<path d="M118.776 95.2637C118.613 95.9718 118.302 96.5159 117.844 96.896C117.372 97.273 116.814 97.4614 116.169 97.4614C115.586 97.4476 115.099 97.3006 114.708 97.0217C114.311 96.7523 114.023 96.4413 113.843 96.0889C113.789 95.9739 113.74 95.8631 113.696 95.7588C113.655 95.6502 113.621 95.5139 113.594 95.3499C113.543 95.0422 113.519 94.4523 113.519 93.5791C113.519 92.706 113.544 92.098 113.594 91.7977C113.649 91.4974 113.732 91.2546 113.844 91.0694C114.024 90.7169 114.312 90.4017 114.709 90.1259C115.099 89.8469 115.586 89.7032 116.17 89.6957C116.886 89.7032 117.469 89.9204 117.921 90.3495C118.372 90.7819 118.656 91.3175 118.776 91.9553H117.583C117.492 91.6475 117.325 91.3845 117.084 91.1673C116.832 90.9607 116.526 90.8543 116.166 90.8468C115.902 90.8543 115.674 90.9086 115.483 91.0097C115.29 91.1151 115.133 91.2461 115.014 91.4037C114.868 91.5688 114.771 91.7806 114.724 92.0394C114.67 92.312 114.643 92.8252 114.643 93.5781C114.643 94.3309 114.67 94.8399 114.724 95.1061C114.772 95.3723 114.868 95.5874 115.014 95.7524C115.134 95.91 115.29 96.0378 115.483 96.1357C115.673 96.2507 115.902 96.3093 116.166 96.3093C116.799 96.3093 117.272 95.9611 117.584 95.2647H118.776V95.2637Z" fill="#FBF1F2"/>
<path d="M119.398 94.6727C119.398 94.0987 119.444 93.6579 119.536 93.3502C119.631 93.0488 119.777 92.7954 119.974 92.5888C120.12 92.4078 120.323 92.247 120.585 92.1043C120.843 91.9691 121.173 91.8978 121.578 91.8903C121.995 91.8978 122.333 91.9691 122.591 92.1054C122.845 92.2492 123.043 92.411 123.181 92.5931C123.391 92.7997 123.54 93.052 123.628 93.3534C123.712 93.6611 123.755 94.1009 123.755 94.6737C123.755 95.2466 123.712 95.6832 123.628 95.9835C123.539 96.2837 123.391 96.5446 123.18 96.764C123.112 96.8438 123.03 96.9226 122.93 96.9993C122.842 97.0866 122.729 97.1622 122.59 97.225C122.333 97.3752 121.995 97.454 121.578 97.4604C121.174 97.4529 120.843 97.3752 120.586 97.225C120.324 97.0887 120.121 96.9354 119.975 96.764C119.779 96.5436 119.632 96.2837 119.537 95.9835C119.445 95.6832 119.4 95.2466 119.4 94.6737L119.398 94.6727ZM122.693 94.6833C122.693 94.2947 122.676 94.0104 122.642 93.8315C122.608 93.66 122.539 93.5088 122.433 93.3789C122.355 93.2565 122.24 93.1596 122.086 93.0893C121.94 93.0158 121.77 92.9786 121.575 92.9786C121.395 92.9786 121.228 93.0158 121.076 93.0893C120.93 93.1596 120.811 93.2554 120.719 93.3779C120.627 93.5078 120.561 93.6579 120.521 93.8304C120.48 94.0093 120.46 94.2893 120.46 94.6716C120.46 95.0539 120.48 95.3275 120.521 95.5022C120.561 95.6811 120.627 95.8387 120.719 95.9749C120.811 96.0804 120.93 96.173 121.076 96.2539C121.228 96.3306 121.395 96.37 121.575 96.37C121.769 96.37 121.94 96.3317 122.086 96.2539C122.239 96.173 122.355 96.0804 122.433 95.9749C122.539 95.8387 122.608 95.6811 122.642 95.5022C122.676 95.3265 122.693 95.0539 122.693 94.6823V94.6833Z" fill="#FBF1F2"/>
<path d="M124.998 91.9585H126.06V92.5345H126.081C126.442 92.1044 126.917 91.8903 127.505 91.8903C127.883 91.8978 128.188 91.9617 128.419 92.0841C128.646 92.2204 128.855 92.3929 129.045 92.6027C129.472 92.1203 130.045 91.8829 130.763 91.8903C131.214 91.8903 131.627 92.049 132.002 92.3674C132.374 92.6889 132.566 93.1606 132.58 93.7825V97.3986H131.519V94.1563C131.519 93.775 131.417 93.4844 131.214 93.2852C131.011 93.0819 130.749 92.9807 130.428 92.9807C130.108 92.9807 129.844 93.0819 129.637 93.2852C129.427 93.4844 129.322 93.775 129.322 94.1563V97.3986H128.262V94.1563C128.262 93.775 128.161 93.4844 127.958 93.2852C127.751 93.0819 127.487 92.9807 127.167 92.9807C126.846 92.9807 126.584 93.0819 126.381 93.2852C126.167 93.4844 126.06 93.775 126.06 94.1563V97.3986H124.999V91.9595L124.998 91.9585Z" fill="#FBF1F2"/>
<path d="M134.378 92.7965H133.842V91.9585H134.378V91.2408C134.378 90.7233 134.517 90.3432 134.795 90.0982C135.066 89.8714 135.407 89.7575 135.818 89.7575H136.505V90.784H135.898C135.578 90.7733 135.425 90.9245 135.439 91.2365V91.9574H136.505V92.7954H135.439V97.3965H134.379V92.7954L134.378 92.7965Z" fill="#FBF1F2"/>
<path d="M136.937 94.6727C136.937 94.0987 136.982 93.6579 137.074 93.3502C137.169 93.0488 137.316 92.7954 137.512 92.5888C137.658 92.4078 137.861 92.247 138.123 92.1043C138.381 91.9691 138.711 91.8978 139.116 91.8903C139.533 91.8978 139.871 91.9691 140.129 92.1054C140.383 92.2492 140.581 92.411 140.719 92.5931C140.929 92.7997 141.078 93.052 141.166 93.3534C141.25 93.6611 141.293 94.1009 141.293 94.6737C141.293 95.2466 141.25 95.6832 141.166 95.9835C141.077 96.2837 140.929 96.5446 140.718 96.764C140.65 96.8438 140.568 96.9226 140.468 96.9993C140.38 97.0866 140.267 97.1622 140.128 97.225C139.871 97.3752 139.533 97.454 139.116 97.4604C138.712 97.4529 138.381 97.3752 138.124 97.225C137.862 97.0887 137.659 96.9354 137.513 96.764C137.317 96.5436 137.17 96.2837 137.075 95.9835C136.984 95.6832 136.938 95.2466 136.938 94.6737L136.937 94.6727ZM140.231 94.6833C140.231 94.2947 140.214 94.0104 140.18 93.8315C140.146 93.66 140.077 93.5088 139.971 93.3789C139.893 93.2565 139.778 93.1596 139.624 93.0893C139.478 93.0158 139.308 92.9786 139.114 92.9786C138.933 92.9786 138.767 93.0158 138.614 93.0893C138.468 93.1596 138.349 93.2554 138.257 93.3779C138.165 93.5078 138.099 93.6579 138.059 93.8304C138.018 94.0093 137.998 94.2893 137.998 94.6716C137.998 95.0539 138.018 95.3275 138.059 95.5022C138.099 95.6811 138.165 95.8387 138.257 95.9749C138.349 96.0804 138.468 96.173 138.614 96.2539C138.767 96.3306 138.933 96.37 139.114 96.37C139.307 96.37 139.478 96.3317 139.624 96.2539C139.777 96.173 139.893 96.0804 139.971 95.9749C140.077 95.8387 140.146 95.6811 140.18 95.5022C140.214 95.3265 140.231 95.0539 140.231 94.6823V94.6833Z" fill="#FBF1F2"/>
<path d="M142.579 91.9585H143.639V92.5345H143.662C144.011 92.1043 144.47 91.8903 145.037 91.8903C145.461 91.8978 145.831 92.0362 146.146 92.3077L145.372 93.2533C145.148 93.0712 144.915 92.9796 144.674 92.9796C144.403 92.9796 144.17 93.0701 143.976 93.2522C143.758 93.4311 143.646 93.7197 143.639 94.1179V97.3975H142.579V91.9585Z" fill="#FBF1F2"/>
<path d="M146.831 90.3027H147.891V91.9585H148.665V92.7965H147.891V95.9675C147.883 96.2433 148.009 96.3785 148.268 96.3711H148.665V97.3975H148.111C147.738 97.3975 147.433 97.2793 147.196 97.0419C146.952 96.8151 146.83 96.4871 146.83 96.058V92.7965H146.297V91.9585H146.83V90.3027H146.831Z" fill="#FBF1F2"/>
<path d="M151.979 96.4382L155.344 90.784H152.007V89.7575H156.718V90.6285L153.234 96.3082H156.718V97.3976H151.979V96.4382Z" fill="#FBF1F2"/>
<path d="M157.659 94.6727C157.659 94.0987 157.705 93.6579 157.797 93.3502C157.892 93.0488 158.038 92.7954 158.235 92.5888C158.381 92.4078 158.584 92.247 158.845 92.1043C159.104 91.9691 159.434 91.8978 159.838 91.8903C160.256 91.8978 160.593 91.9691 160.852 92.1054C161.106 92.2492 161.303 92.411 161.442 92.5931C161.651 92.7997 161.801 93.052 161.888 93.3534C161.973 93.6611 162.015 94.1009 162.015 94.6737C162.015 95.2466 161.973 95.6832 161.888 95.9835C161.8 96.2837 161.651 96.5446 161.441 96.764C161.373 96.8438 161.29 96.9226 161.191 96.9993C161.103 97.0866 160.989 97.1622 160.851 97.225C160.593 97.3752 160.256 97.454 159.838 97.4604C159.435 97.4529 159.104 97.3752 158.846 97.225C158.585 97.0887 158.382 96.9354 158.236 96.764C158.039 96.5436 157.893 96.2837 157.798 95.9835C157.706 95.6832 157.66 95.2466 157.66 94.6737L157.659 94.6727ZM160.954 94.6833C160.954 94.2947 160.937 94.0104 160.903 93.8315C160.869 93.66 160.799 93.5088 160.694 93.3789C160.616 93.2565 160.5 93.1596 160.347 93.0893C160.2 93.0158 160.031 92.9786 159.836 92.9786C159.656 92.9786 159.489 93.0158 159.337 93.0893C159.19 93.1596 159.072 93.2554 158.98 93.3779C158.888 93.5078 158.822 93.6579 158.781 93.8304C158.741 94.0093 158.72 94.2893 158.72 94.6716C158.72 95.0539 158.741 95.3275 158.781 95.5022C158.822 95.6811 158.888 95.8387 158.98 95.9749C159.072 96.0804 159.19 96.173 159.337 96.2539C159.489 96.3306 159.656 96.37 159.836 96.37C160.029 96.37 160.2 96.3317 160.347 96.2539C160.499 96.173 160.616 96.0804 160.694 95.9749C160.799 95.8387 160.869 95.6811 160.903 95.5022C160.937 95.3265 160.954 95.0539 160.954 94.6823V94.6833Z" fill="#FBF1F2"/>
<path d="M163.302 91.9585H164.362V92.5345H164.382C164.731 92.1043 165.189 91.8903 165.755 91.8903C166.193 91.8903 166.592 92.049 166.955 92.3674C167.314 92.6889 167.503 93.1606 167.52 93.7825V97.3986H166.46V94.1562C166.46 93.775 166.362 93.4843 166.164 93.2852C165.971 93.0818 165.721 92.9807 165.416 92.9807C165.11 92.9807 164.86 93.0818 164.662 93.2852C164.461 93.4843 164.362 93.775 164.362 94.1562V97.3986H163.302V91.9595V91.9585Z" fill="#FBF1F2"/>
<path d="M169.88 95.0912C169.88 95.5277 170.001 95.86 170.246 96.0878C170.473 96.3189 170.772 96.4339 171.142 96.4339C171.573 96.4339 171.958 96.2571 172.298 95.9047L173.067 96.5808C172.527 97.1739 171.893 97.4678 171.164 97.4604C170.885 97.4604 170.614 97.4188 170.35 97.3347C170.218 97.2889 170.089 97.2282 169.964 97.1516C169.832 97.0856 169.708 97.0036 169.592 96.9056C169.368 96.7033 169.187 96.42 169.048 96.0569C168.895 95.7077 168.819 95.253 168.819 94.695C168.819 94.1371 168.886 93.7101 169.018 93.3534C169.15 92.9903 169.32 92.7038 169.526 92.4941C169.736 92.2811 169.972 92.1278 170.233 92.033C170.49 91.9382 170.745 91.8914 170.996 91.8914C171.6 91.8988 172.11 92.1033 172.527 92.5047C172.951 92.9136 173.167 93.4758 173.173 94.1925V95.0933H169.879L169.88 95.0912ZM172.113 94.1903C172.099 93.7655 171.989 93.4439 171.782 93.2267C171.578 93.019 171.317 92.9157 170.996 92.9157C170.676 92.9157 170.414 93.019 170.211 93.2267C170.01 93.4439 169.899 93.7655 169.879 94.1903H172.112H172.113Z" fill="#FBF1F2"/>
<path fill-rule="evenodd" clip-rule="evenodd" d="M55.9694 42.0336C58.6344 41.6864 62.7024 40.8218 62.9629 40.6056C80.0943 26.5586 60.9545 48.3298 79.7697 32.9709C87.7978 26.4191 84.9267 29.1812 91.2337 34.565C93.463 36.472 95.875 31.4493 93.5816 27.4339C93.5143 27.3178 98.2987 21.6083 98.367 21.5625C98.3094 21.1259 100.226 30.9882 100.127 24.1585C100.127 24.1095 101.508 19.3594 102.386 19.303C104.283 19.1816 101.585 17.4875 104.846 15.4547C105.631 14.967 106.713 12.4892 106.904 12.0047C106.936 12.0537 111.892 16.4833 112.644 17.3938C113.462 18.3798 117.808 19.3871 117.647 22.8499C117.638 23.0415 119.247 26.499 119.145 28.339C119.058 29.9138 123.436 31.7911 125.039 35.7501C127.095 40.8239 124.484 30.9126 126.587 34.1071C128.297 36.7116 129.504 35.7693 132.372 39.9966C132.69 40.4598 133.481 41.5533 133.977 42.0325H134.393C134.359 41.8004 134.219 41.3723 133.925 40.6802C133.449 39.5568 132.936 35.3912 132.314 35.0079C131.244 34.3531 127.121 31.6814 127.135 30.82C127.203 26.6885 132.525 33.7663 131.119 30.8498C128.424 25.2617 129.606 28.8916 128.107 28.0706C128.789 27.2113 128.327 26.6566 128.517 26.1337C129.547 25.7919 129.723 26.2871 127.336 24.0201C124.797 21.6125 128.103 20.5083 126.722 17.4725C126.132 16.1777 128.295 16.3013 129.756 17.4832C130.505 18.0923 136.018 20.5105 139.63 21.9969C142.494 25.3341 145.882 27.5606 149.793 28.6787C146.81 27.0112 144.363 25.1531 142.452 23.1012C142.588 23.1469 142.688 23.1736 142.741 23.1842C146.972 23.8763 145.922 24.6494 148.437 26.0528C150.053 26.2711 153.417 30.2812 158.016 31.4419C160.448 32.0584 162.96 36.4103 165.582 38.2769C170.552 41.8078 167.161 39.9976 172.593 41.5789C173.128 41.7354 173.581 41.8856 173.98 42.0314H175.887C172.946 41.0273 171.109 38.5144 169.01 37.7892C164.876 36.3677 162.772 33.2946 160.099 30.2812C157.276 27.0974 153.268 27.4424 151.803 25.6737C150.796 24.4567 144.912 21.3346 143.298 20.8075C143.258 20.7703 143.153 20.7479 143.086 20.7021C142.866 20.5541 142.759 20.5541 142.599 20.4657C142.231 20.256 142.121 20.4711 141.722 20.4625C141.573 20.4625 141.069 20.1452 141.053 20.1016C141.009 20.0771 140.814 19.9962 140.786 19.9749C140.535 19.7651 139.876 19.2987 139.566 19.2668C139.345 19.2455 138.954 18.9814 138.793 18.9303C138.363 18.7897 138.235 18.4692 137.621 18.3649C137.141 18.2839 136.523 18.1253 136.103 17.8719C136.108 17.8207 130.998 16.396 130.721 16.3236C130.671 16.313 130.553 16.264 130.403 16.1969C129.333 14.9979 127.597 14.753 126.25 13.9991C125.63 13.6541 123.174 14.9606 122.307 15.5207C121.852 15.8168 121.609 15.8114 121.311 16.0617C121.128 16.215 119.825 16.7889 119.614 16.6058C119.431 16.4439 119.551 16.5004 119.367 16.461C118.605 16.2938 118.77 16.7272 118.402 16.7783C117.745 16.8677 118.025 16.9646 117.69 17.0796C117.138 17.2766 117.48 17.414 116.9 17.4033C116.455 16.7357 115.194 16.5494 114.604 15.6687C114.473 15.4718 113.369 14.4889 113.016 14.4815C112.571 14.4762 111.302 13.1728 110.591 12.9386C110.585 12.9354 109.756 12.354 109.711 12.3167C109.705 12.3114 109.08 12.0367 108.914 11.8855C108.69 11.681 107.885 11.352 107.259 11.1827C106.985 11.024 106.709 10.8888 106.449 10.827C105.511 10.5981 105.413 10.0593 104.737 10.3553C103.376 10.9452 103.679 10.695 102.219 11.6459C102.082 11.6267 101.32 11.7779 101.246 11.8503C100.856 12.2251 100.569 12.6638 100.134 12.6553C99.3536 12.6415 99.6024 12.8119 98.7172 13.2719C97.9688 13.668 97.8204 13.9555 97.0014 14.2951C96.6384 14.4485 95.78 15.2535 95.417 15.2162C95.1991 15.3482 94.8361 15.049 94.408 15.706C94.33 15.8242 93.8485 15.8114 93.4001 16.3715C93.3819 16.396 92.9228 16.6196 92.7968 16.7485C92.0238 17.5375 92.4402 17.053 92.091 17.2489C91.5999 17.529 91.0799 17.8356 90.5567 18.0412C89.5189 18.4394 89.5627 18.7386 89.063 19.0325C88.401 19.4233 88.3583 19.6522 87.5106 19.945C87.0536 20.1069 85.5524 21.2835 85.057 21.373C84.5797 21.4539 82.8244 23.0969 82.1347 23.395C82.0802 23.4217 81.9147 23.5463 81.8677 23.5888C80.8534 23.7102 80.5096 24.4024 79.6405 24.8166C79.2433 25.005 79.1558 25.25 78.6657 25.3852C77.9695 25.5715 76.9616 26.5969 76.6723 26.6938C76.0861 26.8962 75.1358 27.7821 74.5966 27.731C74.5881 27.7278 72.9759 28.6329 72.931 28.6978C72.8862 28.7596 72.8296 28.7809 72.8317 28.8405C72.2381 29.3037 72.6224 28.4902 71.4853 29.834C70.7572 30.6933 68.8695 31.2694 67.6683 32.5993C67.4014 32.8953 67.2871 32.1819 65.9653 34.1475C64.7908 35.8896 63.7284 35.667 62.2475 36.8458C61.1392 37.7264 60.3961 37.3463 58.7252 38.6773C57.5806 39.5877 56.3185 40.3682 55.0554 41.039C54.5643 41.3031 54.166 41.8685 53.6738 42.0304H55.9694V42.0336Z" fill="#FBF1F2"/>
<path fill-rule="evenodd" clip-rule="evenodd" d="M192.66 79.53C139.191 80.9462 85.6167 80.9462 32.1416 79.53C85.6317 78.7186 139.167 78.7186 192.66 79.53Z" fill="#FBF1F2"/>
<path fill-rule="evenodd" clip-rule="evenodd" d="M185.406 97.8384C182.292 95.8898 179.802 93.3289 177.943 90.1653C180.79 92.3748 183.278 94.9336 185.406 97.8384Z" fill="#FBF1F2"/>
<path fill-rule="evenodd" clip-rule="evenodd" d="M177.157 97.8384C179.284 94.9336 181.773 92.3748 184.619 90.1653C182.762 93.3278 180.271 95.8887 177.157 97.8384Z" fill="#FBF1F2"/>
<path fill-rule="evenodd" clip-rule="evenodd" d="M53.5784 97.8384C50.465 95.8898 47.9751 93.3289 46.1162 90.1653C48.9627 92.3748 51.4505 94.9336 53.5784 97.8384Z" fill="#FBF1F2"/>
<path fill-rule="evenodd" clip-rule="evenodd" d="M45.3291 97.8384C47.456 94.9336 49.9448 92.3748 52.7913 90.1653C50.9335 93.3278 48.4425 95.8887 45.3291 97.8384Z" fill="#FBF1F2"/>
</svg>
